<svg width="36" height="36" viewBox="0 0 36 36" fill="none" xmlns="http://www.w3.org/2000/svg">
<g clip-path="url(#clip0)">
<path d="M16.5953 7.99926L0.575117 24.0197C0.204291 24.3903 -1.61287e-07 24.8849 -1.38233e-07 25.4123C-1.1518e-07 25.9397 0.204291 26.4343 0.575117 26.8049L1.75462 27.9847C2.5232 28.7524 3.77236 28.7524 4.53977 27.9847L17.9925 14.5319L31.4602 27.9996C31.8311 28.3701 32.3254 28.5747 32.8525 28.5747C33.3802 28.5747 33.8746 28.3701 34.2457 27.9996L35.4249 26.8198C35.7957 26.449 36 25.9546 36 25.4272C36 24.8998 35.7957 24.4052 35.4249 24.0346L19.3901 7.99926C19.0181 7.62785 18.5214 7.42385 17.9934 7.42502C17.4634 7.42385 16.967 7.62785 16.5953 7.99926Z" fill="white"/>
</g>
<defs>
<clipPath id="clip0">
<rect width="36" height="36" fill="white" transform="translate(0 36) rotate(-90)"/>
</clipPath>
</defs>
</svg>
