<svg width="209" height="201" viewBox="0 0 209 201" fill="none" xmlns="http://www.w3.org/2000/svg">
<path d="M84.9062 58.6166H71.8438V33.4916C71.8439 32.4575 72.1096 31.4394 72.6172 30.5277C73.1248 29.6161 73.8586 28.8391 74.7534 28.2656L104.144 9.42188L111.387 19.8739L84.9062 36.8521V58.6166Z" fill="#F9E109"/>
<path d="M111.39 19.8801L84.9063 36.8395V58.604H71.8438V33.479C71.844 32.447 72.1095 31.431 72.6165 30.5214C73.1236 29.6119 73.8565 28.837 74.7502 28.2656L78.0484 26.1299C80.6784 26.9653 83.4772 27.1874 86.214 26.7779C88.9507 26.3683 91.5471 25.3389 93.7887 23.7745L107.472 14.1956L111.39 19.8801Z" fill="#FCBC04"/>
<path d="M114.297 191.578H42.4531L29.3906 81.6562H127.359L114.297 191.578Z" fill="#F8664F"/>
<path d="M35.9219 69.0938H120.828C122.56 69.0938 124.222 69.7555 125.446 70.9335C126.671 72.1114 127.359 73.7091 127.359 75.375V81.6562H29.3906V75.375C29.3906 73.7091 30.0787 72.1114 31.3036 70.9335C32.5284 69.7555 34.1897 69.0938 35.9219 69.0938Z" fill="#84D2F4"/>
<path d="M52.25 56.5312H104.5C106.232 56.5312 107.893 57.193 109.118 58.371C110.343 59.5489 111.031 61.1466 111.031 62.8125V69.0938H45.7188V62.8125C45.7188 61.1466 46.4069 59.5489 47.6317 58.371C48.8566 57.193 50.5178 56.5312 52.25 56.5312Z" fill="#84D2F4"/>
<path d="M126.249 91.0781H52.25C71.0757 109.181 96.0148 120.21 122.559 122.17L114.297 191.578H42.4531L29.3906 81.6562H127.359L126.249 91.0781Z" fill="#CC5144"/>
<path d="M127.359 75.375V81.6562H29.3906V75.375C29.3958 73.7106 30.0856 72.1159 31.3093 70.939C32.533 69.7621 34.1913 69.0987 35.9219 69.0938C35.927 70.7581 36.6168 72.3529 37.8405 73.5298C39.0643 74.7067 40.7225 75.37 42.4531 75.375H127.359Z" fill="#57B7EB"/>
<path d="M111.031 62.8125V69.0938H45.7188V62.8125C45.7239 61.1481 46.4137 59.5534 47.6374 58.3765C48.8611 57.1996 50.5194 56.5362 52.25 56.5312C52.2552 58.1956 52.9449 59.7904 54.1687 60.9673C55.3924 62.1442 57.0506 62.8075 58.7812 62.8125H111.031Z" fill="#57B7EB"/>
<path d="M146.953 72.2345L140.422 150.75L137.156 185.297L153.484 188.438L163.281 75.3751L153.484 70.3501L146.953 72.2345Z" fill="#E59730"/>
<path d="M127.359 87.9375L133.891 163.312H153.484L146.953 84.7969L137.156 75.375L127.359 87.9375Z" fill="#FCBC04"/>
<path d="M153.484 163.313H133.891L127.359 87.9376L131.213 83.0068L137.156 128.766H140.422L143.981 108.791L146.953 106.781L148.945 108.697L153.484 163.313Z" fill="#E59730"/>
<path d="M120.828 97.3595L111.152 94.1624L107.766 103.641L124.094 153.891L139.334 147.61L120.828 97.3595Z" fill="#F9E109"/>
<path d="M139.344 147.61L124.094 153.891L107.766 103.641L111.097 94.376L117.073 111.649C120.559 121.733 126.973 130.648 135.556 137.34L139.344 147.61Z" fill="#FCBC04"/>
<path d="M179.61 75.375L166.289 135.047H179.61L189.406 91.0781L179.61 75.375Z" fill="#F9E109"/>
<path d="M179.113 104.661L184.338 82.9345L179.61 75.375L166.289 135.047H179.61L184.061 115.076C182.161 114.103 180.647 112.556 179.753 110.674C178.859 108.792 178.634 106.679 179.113 104.661Z" fill="#FCBC04"/>
<path d="M88.1719 94.2188L111.031 153.891L124.094 150.75L101.234 94.2188H88.1719Z" fill="#F9E109"/>
<path d="M88.1719 94.2188L111.031 153.891L117.562 152.32L94.2394 94.2188H88.1719Z" fill="#FCBC04"/>
<path d="M160.016 84.7969L150.219 160.172L163.281 157.031L176.344 91.0781L160.016 84.7969Z" fill="#F9E109"/>
<path d="M168.898 128.671L163.281 157.031L150.219 160.172L160.016 84.7969L166.351 87.2466L163.738 122.516C163.637 123.978 164.111 125.423 165.067 126.564C166.023 127.704 167.391 128.457 168.898 128.671Z" fill="#FCBC04"/>
<path d="M156.75 163.313H143.688L146.953 106.781L160.016 109.922L156.75 163.313Z" fill="#F9E109"/>
<path d="M152.609 133.687L153.347 108.32L146.953 106.781L143.688 163.313H156.75L158.033 142.352C156.366 141.553 154.971 140.314 154.01 138.779C153.049 137.244 152.563 135.478 152.609 133.687Z" fill="#FCBC04"/>
<path d="M173.078 122.484C173.078 134.626 159.921 144.469 143.688 144.469C127.454 144.469 114.297 134.626 114.297 122.484H97.9688L107.766 191.578H179.609L189.406 122.484H173.078Z" fill="#84D2F4"/>
<path d="M181.405 179.016L179.609 191.578H107.766L97.9688 122.484H114.297C114.354 125.142 114.984 127.759 116.148 130.171C117.311 132.582 118.983 134.734 121.057 136.492C122.968 148.34 129.223 159.14 138.692 166.939C148.161 174.738 160.219 179.022 172.686 179.016H181.405Z" fill="#57B7EB"/>
<path d="M143.688 179.016C149.098 179.016 153.484 174.797 153.484 169.594C153.484 164.39 149.098 160.172 143.688 160.172C138.277 160.172 133.891 164.39 133.891 169.594C133.891 174.797 138.277 179.016 143.688 179.016Z" fill="#F9E109"/>
<path d="M151.819 174.839C150.648 176.514 148.949 177.783 146.972 178.46C144.995 179.137 142.844 179.185 140.836 178.598C138.829 178.01 137.07 176.818 135.82 175.197C134.569 173.576 133.893 171.612 133.891 169.594C133.884 167.671 134.5 165.794 135.654 164.223C140.296 168.712 145.782 172.314 151.819 174.839Z" fill="#FCBC04"/>
<path d="M97.9688 160.172H39.1875C35.7231 160.172 32.4006 158.848 29.9509 156.492C27.5012 154.136 26.125 150.941 26.125 147.609C26.125 144.278 27.5012 141.082 29.9509 138.726C32.4006 136.37 35.7231 135.047 39.1875 135.047H97.9688C101.433 135.047 104.756 136.37 107.205 138.726C109.655 141.082 111.031 144.278 111.031 147.609C111.031 150.941 109.655 154.136 107.205 156.492C104.756 158.848 101.433 160.172 97.9688 160.172Z" fill="#F89C8D"/>
<path d="M104.501 153.891C106.35 153.889 108.176 153.503 109.856 152.76C109.226 154.154 108.328 155.422 107.211 156.497C104.754 158.845 101.433 160.166 97.9693 160.172H39.188C36.603 160.174 34.0755 159.438 31.9255 158.058C29.7755 156.678 28.0997 154.715 27.1101 152.418C26.1206 150.121 25.8619 147.594 26.3668 145.156C26.8717 142.718 28.1174 140.478 29.9463 138.721C31.0646 137.647 32.3828 136.784 33.8324 136.178C35.5121 135.434 37.339 135.048 39.188 135.047H97.9693C101.144 135.051 104.209 136.168 106.591 138.187C108.217 139.538 109.454 141.269 110.183 143.212C109.585 144.25 108.709 145.114 107.647 145.716C106.585 146.318 105.374 146.635 104.141 146.636C103.066 146.636 102.005 146.399 101.039 145.945C100.088 145.48 99.0361 145.238 97.9693 145.238C96.9025 145.238 95.8508 145.48 94.8996 145.945L87.9765 149.274C87.0253 149.738 85.9736 149.981 84.9068 149.981C83.84 149.981 82.7883 149.738 81.8371 149.274L74.914 145.945C73.9628 145.48 72.9111 145.238 71.8443 145.238C70.7775 145.238 69.7257 145.48 68.7746 145.945L61.8515 149.274C60.9003 149.738 59.8486 149.981 58.7818 149.981C57.715 149.981 56.6632 149.738 55.7121 149.274L48.789 145.945C47.8378 145.48 46.7861 145.238 45.7193 145.238C44.6525 145.238 43.6008 145.48 42.6496 145.945L37.3919 148.489C36.7849 148.769 36.1504 148.99 35.4979 149.148C36.7184 150.63 38.2722 151.826 40.0426 152.648C41.8129 153.469 43.7537 153.894 45.7193 153.891H104.501Z" fill="#F8664F"/>
<path d="M19.5938 172.734H117.562V179.016C117.562 182.347 116.186 185.543 113.737 187.899C111.287 190.255 107.964 191.578 104.5 191.578H32.6562C29.1919 191.578 25.8694 190.255 23.4197 187.899C20.97 185.543 19.5938 182.347 19.5938 179.016V172.734Z" fill="#FCBC04"/>
<path d="M77.7221 172.734L75.1096 175.875L72.4971 172.734H77.7221Z" fill="#E59730"/>
<path d="M77.7221 172.734L75.1096 175.875L72.4971 172.734H77.7221Z" fill="#E59730"/>
<path d="M104.5 172.734H32.6562C30.9241 172.734 29.2628 172.073 28.038 170.895C26.8131 169.717 26.125 168.119 26.125 166.453C26.125 164.787 26.8131 163.19 28.038 162.012C29.2628 160.834 30.9241 160.172 32.6562 160.172H104.5C106.232 160.172 107.893 160.834 109.118 162.012C110.343 163.19 111.031 164.787 111.031 166.453C111.031 168.119 110.343 169.717 109.118 170.895C107.893 172.073 106.232 172.734 104.5 172.734Z" fill="#CC5144"/>
<path d="M78.375 175.875L65.3125 160.172H91.4375L78.375 175.875Z" fill="#F7F754"/>
<path d="M77.2549 163.539L74.4563 160.172H65.3125L78.375 175.875L85.7716 166.984C84.1662 167.135 82.5469 166.899 81.06 166.298C79.573 165.696 78.2653 164.748 77.2549 163.539Z" fill="#F9E109"/>
<path d="M22.8594 135.047C22.8589 136.934 23.4053 138.785 24.4372 140.39C25.4692 141.995 26.9458 143.293 28.7016 144.136L31.1965 145.336C32.6634 146.042 34.2814 146.41 35.9219 146.41C37.5624 146.41 39.1803 146.042 40.6472 145.336L45.9016 142.823C46.8589 142.363 47.9143 142.124 48.9844 142.124C50.0545 142.124 51.1099 142.363 52.0671 142.823L58.9641 146.14C59.9214 146.6 60.9768 146.839 62.0469 146.839C63.117 146.839 64.1724 146.6 65.1296 146.14L72.0266 142.823C72.9839 142.363 74.0393 142.124 75.1094 142.124C76.1795 142.124 77.2349 142.363 78.1921 142.823L85.0891 146.14C86.0464 146.6 87.1018 146.839 88.1719 146.839C89.242 146.839 90.2974 146.6 91.2546 146.14L98.1516 142.823C99.1089 142.363 100.164 142.124 101.234 142.124C102.304 142.124 103.36 142.363 104.317 142.823C105.369 143.329 106.538 143.567 107.714 143.516C108.889 143.464 110.03 143.125 111.03 142.529C112.031 141.934 112.856 141.102 113.427 140.114C113.999 139.125 114.298 138.012 114.297 136.881V135.047H22.8594Z" fill="#C4F236"/>
<path d="M84.9062 103.641H52.25C43.589 103.641 35.2828 106.949 29.1585 112.839C23.0343 118.729 19.5938 126.717 19.5938 135.047H117.562C117.562 126.717 114.122 118.729 107.998 112.839C101.873 106.949 93.5672 103.641 84.9062 103.641Z" fill="#FCBC04"/>
<path d="M117.562 135.047H19.5938C19.5967 128.187 21.9352 121.516 26.2519 116.055C30.5685 110.593 36.6258 106.641 43.4981 104.803C45.1953 110.782 48.8892 116.06 54.011 119.822C59.1329 123.584 65.3987 125.623 71.8437 125.625H116.06C117.061 128.673 117.568 131.851 117.562 135.047Z" fill="#E59730"/>
<path d="M117.562 179.016C117.562 182.347 116.186 185.543 113.737 187.899C111.287 190.255 107.964 191.578 104.5 191.578H32.6562C29.1919 191.578 25.8694 190.255 23.4197 187.899C20.97 185.543 19.5938 182.347 19.5938 179.016V172.734H26.5495C27.269 175.432 28.9017 177.822 31.19 179.528C33.4784 181.234 36.2921 182.158 39.1875 182.156H107.766C111.301 182.17 114.743 181.066 117.562 179.016Z" fill="#E59730"/>
<path d="M114.297 135.047V136.868C114.311 137.313 114.256 137.758 114.134 138.187H28.411C29.3554 139.373 30.5742 140.33 31.9705 140.983L34.4524 142.207C35.9256 142.905 37.5456 143.267 39.1876 143.267C40.8295 143.267 42.4495 142.905 43.9227 142.207L49.1804 139.664C50.1315 139.199 51.1833 138.957 52.2501 138.957C53.3168 138.957 54.3686 139.199 55.3197 139.664L62.2429 142.993C63.194 143.457 64.2458 143.699 65.3125 143.699C66.3793 143.699 67.4311 143.457 68.3822 142.993L75.3054 139.664C76.2565 139.199 77.3083 138.957 78.375 138.957C79.4418 138.957 80.4936 139.199 81.4447 139.664L88.3679 142.993C89.319 143.457 90.3708 143.699 91.4375 143.699C92.5043 143.699 93.5561 143.457 94.5072 142.993L101.43 139.664C102.382 139.199 103.433 138.957 104.5 138.957C105.567 138.957 106.619 139.199 107.57 139.664C108.512 140.117 109.55 140.356 110.603 140.361C111.656 140.367 112.697 140.139 113.644 139.695C113.083 140.83 112.2 141.789 111.096 142.462C109.992 143.135 108.713 143.493 107.406 143.495C106.331 143.495 105.27 143.259 104.304 142.804C103.353 142.34 102.301 142.098 101.234 142.098C100.168 142.098 99.1159 142.34 98.1647 142.804L91.2416 146.133C90.2904 146.598 89.2387 146.84 88.1719 146.84C87.1051 146.84 86.0534 146.598 85.1022 146.133L78.1791 142.804C77.2279 142.34 76.1762 142.098 75.1094 142.098C74.0426 142.098 72.9909 142.34 72.0397 142.804L65.1166 146.133C64.1654 146.598 63.1137 146.84 62.0469 146.84C60.9801 146.84 59.9284 146.598 58.9772 146.133L52.0541 142.804C51.1029 142.34 50.0512 142.098 48.9844 142.098C47.9176 142.098 46.8659 142.34 45.9147 142.804L40.6571 145.348C39.1839 146.045 37.5639 146.408 35.9219 146.408C34.28 146.408 32.66 146.045 31.1868 145.348L28.7049 144.123C26.9448 143.288 25.4637 141.995 24.4303 140.39C23.3969 138.786 22.8526 136.934 22.8594 135.047H114.297Z" fill="#A1D51C"/>
<path d="M75.1094 119.344C76.9129 119.344 78.375 117.938 78.375 116.203C78.375 114.469 76.9129 113.062 75.1094 113.062C73.3058 113.062 71.8438 114.469 71.8438 116.203C71.8438 117.938 73.3058 119.344 75.1094 119.344Z" fill="#F9E109"/>
<path d="M62.0469 116.203C63.8504 116.203 65.3125 114.797 65.3125 113.062C65.3125 111.328 63.8504 109.922 62.0469 109.922C60.2433 109.922 58.7812 111.328 58.7812 113.062C58.7812 114.797 60.2433 116.203 62.0469 116.203Z" fill="#F9E109"/>
<path d="M52.25 122.484C54.0536 122.484 55.5156 121.078 55.5156 119.344C55.5156 117.609 54.0536 116.203 52.25 116.203C50.4464 116.203 48.9844 117.609 48.9844 119.344C48.9844 121.078 50.4464 122.484 52.25 122.484Z" fill="#F9E109"/>
<path d="M101.234 122.484C103.038 122.484 104.5 121.078 104.5 119.344C104.5 117.609 103.038 116.203 101.234 116.203C99.4308 116.203 97.9688 117.609 97.9688 119.344C97.9688 121.078 99.4308 122.484 101.234 122.484Z" fill="#F9E109"/>
<path d="M39.1875 119.344C40.9911 119.344 42.4531 117.938 42.4531 116.203C42.4531 114.469 40.9911 113.062 39.1875 113.062C37.3839 113.062 35.9219 114.469 35.9219 116.203C35.9219 117.938 37.3839 119.344 39.1875 119.344Z" fill="#FCBC04"/>
<path d="M88.1719 116.203C89.9754 116.203 91.4375 114.797 91.4375 113.062C91.4375 111.328 89.9754 109.922 88.1719 109.922C86.3683 109.922 84.9062 111.328 84.9062 113.062C84.9062 114.797 86.3683 116.203 88.1719 116.203Z" fill="#F9E109"/>
<path d="M55.2218 120.663C54.912 121.317 54.3783 121.849 53.7098 122.17C53.0413 122.491 52.2785 122.583 51.5487 122.428C50.8188 122.274 50.1661 121.883 49.6994 121.322C49.2327 120.761 48.9804 120.062 48.9844 119.344C48.9897 118.83 49.123 118.326 49.373 117.872C49.623 117.419 49.9825 117.029 50.4213 116.737H50.454C51.8875 118.211 53.4865 119.528 55.2218 120.663Z" fill="#FCBC04"/>
</svg>
