<svg width="221" height="221" viewBox="0 0 221 221" fill="none" xmlns="http://www.w3.org/2000/svg">
<path d="M176.109 110.5L214.094 72.5156L148.484 6.90625L44.8906 110.5" fill="#78B75B"/>
<path d="M75.9688 110.5C75.9688 101.663 79.339 92.8269 86.083 86.0829C99.5674 72.5985 121.433 72.5985 134.917 86.0829C141.661 92.8269 145.031 101.663 145.031 110.5" fill="#669E4F"/>
<path d="M134.074 115.383C134.074 111.695 132.638 108.224 130.027 105.614C124.813 100.396 115.711 100.396 110.5 105.614L100.731 95.8449C103.428 93.1549 107.803 93.1584 110.5 95.8483L115.379 90.9622C109.999 85.5822 101.235 85.5788 95.8482 90.9622L93.4068 88.5208L88.5207 93.407L90.9655 95.8518C88.3549 98.4589 86.9219 101.926 86.9219 105.617C86.9184 109.305 88.3584 112.776 90.9689 115.386C93.576 117.993 97.0464 119.43 100.734 119.43C104.422 119.43 107.889 117.993 110.496 115.386L120.265 125.155C117.568 127.845 113.193 127.842 110.496 125.152L105.617 130.038C108.307 132.728 111.847 134.074 115.383 134.074C118.919 134.074 122.455 132.728 125.148 130.038L127.589 132.479L132.476 127.593L130.031 125.148C132.638 122.538 134.074 119.071 134.074 115.383ZM105.61 110.5C103.007 113.107 98.4519 113.107 95.8482 110.5C94.5429 109.195 93.8212 107.461 93.8247 105.617C93.8247 103.773 94.5429 102.04 95.8448 100.735L105.61 110.5ZM115.383 110.497C117.986 107.889 122.541 107.889 125.145 110.497C126.45 111.802 127.168 113.535 127.168 115.379C127.168 117.223 126.45 118.957 125.148 120.262L115.383 110.497Z" fill="#78B75B"/>
<path d="M166.517 103.318L161.631 98.4314L188.489 71.573L149.42 32.5078L122.562 59.3662L117.676 54.4801L146.976 25.1803C148.326 23.8336 150.512 23.8301 151.862 25.1803L195.817 69.1317C196.466 69.7808 196.825 70.6579 196.825 71.573C196.825 72.4915 196.466 73.3686 195.817 74.0178L166.517 103.318Z" fill="#669E4F"/>
<path d="M151.946 88.6111L156.829 83.7215L161.719 88.6042L156.836 93.4938L151.946 88.6111Z" fill="#96CC7F"/>
<path d="M161.612 78.9395L166.496 74.056L171.382 78.9419L166.498 83.8254L161.612 78.9395Z" fill="#96CC7F"/>
<path d="M127.526 64.2457L132.416 59.363L137.296 64.2502L132.407 69.1329L127.526 64.2457Z" fill="#96CC7F"/>
<path d="M137.201 54.5155L142.085 49.632L146.971 54.5179L142.087 59.4014L137.201 54.5155Z" fill="#96CC7F"/>
<path d="M6.90625 110.5H214.094V200.281H6.90625V110.5Z" fill="#96CC7F"/>
<path d="M110.5 189.922C129.571 189.922 145.031 174.462 145.031 155.391C145.031 136.32 129.571 120.859 110.5 120.859C91.4289 120.859 75.9688 136.32 75.9688 155.391C75.9688 174.462 91.4289 189.922 110.5 189.922Z" fill="#78B75B"/>
<path d="M58.7031 200.281L72.5156 214.094L86.3281 200.281" fill="#78B75B"/>
<path d="M113.954 151.938H113.947V138.125H113.954C117.759 138.125 120.853 141.222 120.853 145.031H127.759C127.759 137.414 121.564 131.219 113.954 131.219H113.947V127.766H107.044V131.219C99.4263 131.219 93.2314 137.414 93.2314 145.031C93.2314 152.645 99.4263 158.84 107.044 158.84V172.653C103.232 172.653 100.138 169.555 100.138 165.747L93.2314 165.75C93.2314 173.364 99.4263 179.559 107.044 179.559V183.012H113.947V179.559H113.954C121.564 179.559 127.759 173.364 127.759 165.747C127.759 158.129 121.564 151.938 113.954 151.938ZM100.138 145.031C100.138 141.222 103.232 138.125 107.044 138.125V151.938C103.235 151.938 100.138 148.837 100.138 145.031ZM113.954 172.653H113.947V158.84H113.954C117.759 158.84 120.853 161.938 120.853 165.75C120.853 169.555 117.759 172.653 113.954 172.653Z" fill="#669E4F"/>
<path d="M200.275 189.918H158.841V183.012H196.822V127.766H158.841V120.859H200.275C202.184 120.859 203.728 122.403 203.728 124.313V186.469C203.728 188.375 202.184 189.918 200.275 189.918Z" fill="#669E4F"/>
<path d="M62.1528 189.922H20.7188C18.8092 189.922 17.2656 188.375 17.2656 186.469V124.312C17.2656 122.403 18.8092 120.859 20.7153 120.859H62.1528L62.1562 127.766H24.1719V183.016H62.1528V189.922Z" fill="#669E4F"/>
<path d="M158.841 169.203H165.744V176.109H158.841V169.203Z" fill="#78B75B"/>
<path d="M172.653 169.203H179.556V176.109H172.653V169.203Z" fill="#78B75B"/>
<path d="M158.841 134.672H165.744V141.578H158.841V134.672Z" fill="#78B75B"/>
<path d="M172.653 134.672H179.556V141.578H172.653V134.672Z" fill="#78B75B"/>
<path d="M41.4375 134.672H48.3403V141.578H41.4375V134.672Z" fill="#78B75B"/>
<path d="M55.25 134.672H62.1528V141.578H55.25V134.672Z" fill="#78B75B"/>
<path d="M41.4375 169.203H48.3403V176.109H41.4375V169.203Z" fill="#78B75B"/>
<path d="M55.25 169.203H62.1528V176.109H55.25V169.203Z" fill="#78B75B"/>
<path d="M214.09 107.043H184.445L216.535 74.957C217.184 74.3078 217.543 73.4307 217.547 72.5156C217.547 71.5971 217.184 70.72 216.535 70.0708L150.926 4.46146C149.576 3.11128 147.39 3.11819 146.04 4.46146L43.4542 107.043H6.89941C4.99329 107.043 3.44629 108.59 3.44629 110.497V200.278C3.44629 202.184 4.99329 203.731 6.89941 203.731H57.2667L70.0674 216.532C70.7201 217.181 71.5972 217.547 72.5157 217.543C73.4308 217.543 74.3113 217.181 74.9571 216.535L87.7578 203.734H214.09C215.996 203.734 217.543 202.187 217.543 200.281V110.5C217.543 108.59 215.996 107.043 214.09 107.043ZM148.481 11.789L209.208 72.5122L174.676 107.043H148.312C147.521 98.2 143.712 89.9919 137.358 83.6382C122.545 68.8312 98.4487 68.8312 83.6417 83.6382C77.2845 89.9919 73.4722 98.2034 72.6849 107.043H53.23L148.481 11.789ZM94.0149 107.043C93.5487 104.802 94.1772 102.402 95.845 100.735L102.154 107.043H94.0149ZM131.264 107.043C130.884 106.543 130.476 106.063 130.027 105.614C124.813 100.396 115.711 100.396 110.5 105.614L100.731 95.845C103.428 93.155 107.803 93.155 110.5 95.8484L115.379 90.9622C109.999 85.5823 101.235 85.5788 95.8485 90.9622L93.4071 88.5209L88.5209 93.407L90.9657 95.8519C87.9305 98.8837 86.5872 102.996 87.0188 107.047H79.6291C80.3957 100.054 83.4759 93.5762 88.5278 88.5278C100.641 76.4073 120.359 76.4108 132.479 88.5278C137.524 93.5728 140.604 100.054 141.374 107.047H131.264V107.043ZM72.5122 209.208L67.039 203.734H77.9854L72.5122 209.208ZM210.637 196.828H10.3525V113.953H210.637V196.828Z" fill="black"/>
<path d="M100.138 165.747L93.2314 165.75C93.2314 173.364 99.4263 179.559 107.044 179.559V183.012H113.947V179.559H113.954C121.564 179.559 127.759 173.364 127.759 165.747C127.759 158.129 121.564 151.934 113.954 151.934H113.947V138.122H113.954C117.759 138.122 120.853 141.219 120.853 145.028H127.759C127.759 137.41 121.564 131.215 113.954 131.215H113.947V127.762H107.044V131.215C99.4263 131.215 93.2314 137.41 93.2314 145.028C93.2314 152.642 99.4263 158.837 107.044 158.837V172.649C103.235 172.653 100.138 169.555 100.138 165.747ZM100.138 145.031C100.138 141.222 103.232 138.125 107.044 138.125V151.938C103.235 151.938 100.138 148.837 100.138 145.031ZM113.947 158.84H113.954C117.759 158.84 120.853 161.938 120.853 165.75C120.853 169.555 117.759 172.653 113.954 172.653H113.947V158.84Z" fill="black"/>
<path d="M110.497 193.372C131.436 193.372 148.477 176.33 148.477 155.387C148.477 134.444 131.436 117.403 110.497 117.403C89.5533 117.406 72.5156 134.444 72.5156 155.391C72.5156 176.33 89.5533 193.372 110.497 193.372ZM110.497 124.313C127.631 124.313 141.571 138.253 141.571 155.391C141.571 172.525 127.631 186.469 110.497 186.469C93.3587 186.469 79.4219 172.529 79.4219 155.391C79.4219 138.253 93.3587 124.313 110.497 124.313Z" fill="black"/>
<path d="M203.728 186.465V124.312C203.728 122.403 202.184 120.859 200.275 120.859H158.841V127.766H196.822V183.016H158.841V189.922H200.275C202.184 189.918 203.728 188.375 203.728 186.465Z" fill="black"/>
<path d="M20.7188 189.922H62.1528V183.016H24.1719V127.766H62.1562L62.1528 120.859H20.7153C18.8092 120.859 17.2656 122.403 17.2656 124.312V186.469C17.2656 188.375 18.8092 189.922 20.7188 189.922Z" fill="black"/>
<path d="M158.841 169.203H165.744V176.109H158.841V169.203Z" fill="black"/>
<path d="M172.653 169.203H179.556V176.109H172.653V169.203Z" fill="black"/>
<path d="M158.841 134.672H165.744V141.578H158.841V134.672Z" fill="black"/>
<path d="M172.653 134.672H179.556V141.578H172.653V134.672Z" fill="black"/>
<path d="M149.42 32.5078L188.485 71.5765L161.627 98.4349L166.513 103.321L195.813 74.0213C196.462 73.3721 196.821 72.495 196.821 71.5765C196.821 70.6614 196.462 69.7808 195.813 69.1351L151.865 25.1803C150.514 23.8301 148.329 23.8336 146.978 25.1803L117.679 54.48L122.565 59.3662L149.42 32.5078Z" fill="black"/>
<path d="M151.844 88.7021L156.727 83.8187L161.611 88.7021L156.727 93.5856L151.844 88.7021Z" fill="black"/>
<path d="M161.603 78.9083L166.486 74.0249L171.372 78.9108L166.488 83.7942L161.603 78.9083Z" fill="black"/>
<path d="M127.526 64.2457L132.416 59.363L137.296 64.2502L132.407 69.1329L127.526 64.2457Z" fill="black"/>
<path d="M137.201 54.5155L142.085 49.632L146.971 54.5179L142.087 59.4014L137.201 54.5155Z" fill="black"/>
<path d="M41.4375 134.672H48.3403V141.578H41.4375V134.672Z" fill="black"/>
<path d="M55.25 134.672H62.1528V141.578H55.25V134.672Z" fill="black"/>
<path d="M41.4375 169.203H48.3403V176.109H41.4375V169.203Z" fill="black"/>
<path d="M55.25 169.203H62.1528V176.109H55.25V169.203Z" fill="black"/>
</svg>
