<svg width="184" height="184" viewBox="0 0 184 184" fill="none" xmlns="http://www.w3.org/2000/svg">
<g clip-path="url(#clip0)">
<path d="M80.8176 35.3215C80.8176 35.3215 24.9195 69.5196 4.25231 162.457C2.71428 169.373 10.6209 174.481 16.2827 170.222C41.0613 151.585 93.7373 118.301 166.624 106.337C174.932 104.973 179.126 95.5988 174.607 88.4954C163.597 71.19 137.818 44.5497 80.8176 35.3215Z" fill="url(#paint0_linear)"/>
<path d="M174.471 88.2844C94.3841 98.0184 36.5644 134.347 10.2383 154.148C8.85219 155.191 7.33184 155.67 5.8483 155.702C5.29666 157.926 4.75909 160.174 4.24894 162.469C2.71236 169.38 10.6236 174.478 16.2822 170.223C41.0652 151.582 93.7556 118.289 166.663 106.33C174.922 104.976 179.133 95.6267 174.647 88.5611C174.589 88.4691 174.53 88.3768 174.471 88.2844Z" fill="url(#paint1_linear)"/>
<path d="M177.546 95.1743C177.546 95.1743 162.988 42.9136 75.8706 30.8359C75.8706 30.8359 20.2293 64.5588 0.183444 154.033C-1.30876 160.694 6.62597 165.449 12.2593 161.269C14.4099 159.673 16.7719 157.967 19.3411 156.174C22.5571 153.928 26.9728 156.233 26.9728 160.155V160.434C26.9728 164.581 30.3342 167.943 34.481 167.943C38.6279 167.943 41.9893 164.581 41.9893 160.434V152.569C41.9893 145.739 45.7166 139.454 51.7135 136.186C66.3903 128.185 83.7739 120.032 103.596 112.958C106.756 111.831 110.082 114.177 110.082 117.532C110.082 121.679 113.443 125.04 117.59 125.04C121.737 125.04 125.099 121.679 125.099 117.532V107.868C125.099 106.781 125.822 105.827 126.868 105.532L126.917 105.519C128.473 105.081 130.017 106.251 130.017 107.867V132.334C130.017 136.48 133.379 139.842 137.526 139.842C141.673 139.842 145.034 136.48 145.034 132.334V111.454C145.034 105.261 149.407 99.9103 155.486 98.7305C162.637 97.3433 169.992 96.1462 177.546 95.1743Z" fill="url(#paint2_linear)"/>
<path d="M75.8708 30.8362C75.8708 30.8362 65.2468 37.2758 51.6113 51.9911L122.67 123.05C124.16 121.678 125.099 119.717 125.099 117.532V107.868C125.099 106.781 125.822 105.827 126.868 105.533L126.917 105.519C128.474 105.081 130.018 106.251 130.018 107.868V130.398L139.254 139.634C142.566 138.853 145.035 135.885 145.035 132.334V111.453C145.035 105.261 149.408 99.9102 155.487 98.7304C162.637 97.3428 169.992 96.1457 177.546 95.1741C177.546 95.1741 162.988 42.9134 75.8708 30.8362Z" fill="url(#paint3_linear)"/>
<path d="M94.0281 48.3801C93.2914 47.5456 92.4364 46.7526 91.4601 46.0163C83.499 40.0128 70.5912 40.0128 62.6301 46.0163C55.0833 51.7073 54.6958 60.7482 61.4572 66.7881L119.464 124.795C122.702 123.961 125.098 121.03 125.098 117.532V107.868C125.098 106.781 125.821 105.827 126.867 105.532L126.917 105.519C128.473 105.081 130.017 106.251 130.017 107.867V132.334C130.017 134.13 130.65 135.777 131.701 137.069C132.213 137.6 132.777 138.11 133.39 138.598C134.577 139.383 135.997 139.842 137.525 139.842C141.672 139.842 145.033 136.481 145.033 132.334V111.454C145.033 108.137 146.289 105.063 148.388 102.74L94.0281 48.3801Z" fill="url(#paint4_linear)"/>
<path d="M65.9376 72.5084C63.1769 69.3166 58.1905 67.1851 52.4973 67.1851C43.8107 67.1851 36.7686 72.1466 36.7686 78.2673C36.7686 80.8797 38.0548 83.2793 40.2011 85.1738L78.0798 123.172C86.065 119.621 94.5749 116.177 103.596 112.958C104.424 112.662 105.263 112.611 106.052 112.749L65.9376 72.5084Z" fill="url(#paint5_linear)"/>
<path d="M130.432 81.5085C127.636 78.4347 122.749 76.3955 117.183 76.3955C108.497 76.3955 101.454 81.357 101.454 87.4777C101.454 87.7277 101.47 87.9749 101.493 88.2206C94.7055 84.6308 85.2804 85.1189 79.216 89.6922C72.8315 94.5069 72.4466 102.131 78.0593 107.286L89.2122 118.439C93.8519 116.558 98.6478 114.725 103.596 112.959C106.755 111.831 110.082 114.178 110.082 117.533C110.082 121.68 113.443 125.041 117.59 125.041C121.737 125.041 125.098 121.68 125.098 117.533V107.869C125.098 106.782 125.821 105.828 126.868 105.533L126.917 105.519C128.473 105.081 130.017 106.251 130.017 107.868V132.334C130.017 136.481 133.379 139.843 137.526 139.843C141.672 139.843 145.034 136.481 145.034 132.334V111.454C145.034 107.319 146.986 103.561 150.091 101.168L130.432 81.5085Z" fill="url(#paint6_linear)"/>
<path d="M76.9816 123.662L64.0774 110.758C61.282 107.684 56.3945 105.645 50.8276 105.645C44.0134 105.645 38.2128 108.698 36.0282 112.969C29.6625 110.878 21.9782 111.792 16.7717 115.719C10.3869 120.533 10.0023 128.158 15.6154 133.312L41.9891 159.686V152.57C41.9891 145.74 45.7163 139.455 51.7133 136.186C59.4031 131.994 67.8436 127.761 76.9816 123.662Z" fill="url(#paint7_linear)"/>
<path d="M35.2766 92.3128C35.6226 91.6605 35.3744 90.8513 34.7225 90.5053C34.0702 90.1593 33.2609 90.4075 32.9149 91.0594C32.569 91.7117 32.8172 92.521 33.4691 92.867C34.121 93.2133 34.9303 92.9651 35.2766 92.3128Z" fill="#FFEAA2"/>
<path d="M30.8881 92.8518C30.3732 92.5787 29.7343 92.7746 29.4612 93.2894C29.188 93.8043 29.384 94.4432 29.8988 94.7163C30.4136 94.9894 31.0526 94.7935 31.3257 94.2787C31.5988 93.7635 31.4029 93.1249 30.8881 92.8518Z" fill="#FFEAA2"/>
<path d="M32.0477 98.3543C31.7374 98.1898 31.3521 98.3077 31.1875 98.618C31.023 98.9283 31.141 99.3136 31.4513 99.4781C31.7615 99.643 32.1469 99.5247 32.3114 99.2144C32.4763 98.9041 32.3583 98.5192 32.0477 98.3543Z" fill="#FFEAA2"/>
<path d="M41.1713 100.112C40.4331 100.091 39.818 100.672 39.7974 101.41C39.7765 102.148 40.3581 102.763 41.0959 102.784C41.834 102.805 42.4492 102.223 42.4697 101.485C42.4907 100.747 41.9095 100.132 41.1713 100.112Z" fill="#FFEAA2"/>
<path d="M48.1269 90.655C47.5443 90.6384 47.0587 91.0977 47.0424 91.68C47.0258 92.2626 47.4851 92.7482 48.0674 92.7648C48.6501 92.7814 49.1357 92.3222 49.1523 91.7395C49.1685 91.1568 48.7096 90.6712 48.1269 90.655Z" fill="#FFEAA2"/>
<path d="M38.3223 91.0559C37.9709 91.0462 37.6783 91.3229 37.6682 91.6739C37.6585 92.0253 37.9352 92.3179 38.2862 92.328C38.6376 92.3378 38.9302 92.0611 38.9403 91.71C38.9504 91.3586 38.6737 91.066 38.3223 91.0559Z" fill="#FFEAA2"/>
<path d="M36.2238 96.5367C35.692 96.658 35.359 97.1872 35.4799 97.7194C35.6011 98.2512 36.1303 98.5842 36.6625 98.4633C37.1943 98.3421 37.5273 97.8128 37.4064 97.2807C37.2849 96.7489 36.7556 96.4159 36.2238 96.5367Z" fill="#FFEAA2"/>
<path d="M37.3287 93.7791C36.9087 93.8748 36.6457 94.2929 36.7413 94.7129C36.8369 95.1328 37.2551 95.3958 37.675 95.3002C38.095 95.2046 38.358 94.7865 38.2624 94.3665C38.1664 93.9465 37.7486 93.6835 37.3287 93.7791Z" fill="#FFEAA2"/>
<path d="M34.1587 95.3049C34.412 95.2471 34.5703 94.9953 34.5126 94.742C34.4549 94.4888 34.2031 94.3304 33.9498 94.3881C33.6965 94.4458 33.5381 94.6976 33.5959 94.9509C33.6536 95.2042 33.9054 95.3626 34.1587 95.3049Z" fill="#FFEAA2"/>
<path d="M60.0608 88.3641C60.4068 87.7118 60.1586 86.9025 59.5067 86.5566C58.8544 86.2106 58.0451 86.4588 57.6991 87.1107C57.3531 87.763 57.6014 88.5722 58.2533 88.9182C58.9056 89.2642 59.7148 89.016 60.0608 88.3641Z" fill="#FFEAA2"/>
<path d="M53.5892 99.8608C53.0744 99.5877 52.4354 99.7836 52.1623 100.298C51.8892 100.813 52.0851 101.452 52.6 101.725C53.1148 101.998 53.7537 101.803 54.0269 101.288C54.3 100.773 54.1041 100.134 53.5892 99.8608Z" fill="#FFEAA2"/>
<path d="M51.9197 94.0544C51.6094 93.8895 51.2241 94.0079 51.0596 94.3181C50.8951 94.6284 51.0131 95.0137 51.3233 95.1782C51.6336 95.3431 52.0189 95.2248 52.1834 94.9145C52.348 94.6042 52.23 94.2193 51.9197 94.0544Z" fill="#FFEAA2"/>
<path d="M67.3412 90.1678C66.603 90.1469 65.9879 90.7284 65.9673 91.4662C65.9464 92.2044 66.528 92.8195 67.2658 92.8401C68.004 92.861 68.6191 92.2795 68.6397 91.5417C68.6606 90.8038 68.0794 90.1887 67.3412 90.1678Z" fill="#FFEAA2"/>
<path d="M67.1943 88.383C67.2109 87.8004 66.7516 87.3147 66.1689 87.2985C65.5863 87.2823 65.1007 87.7412 65.0844 88.3235C65.0678 88.9062 65.5271 89.3918 66.1094 89.4084C66.6921 89.4246 67.1777 88.9657 67.1943 88.383Z" fill="#FFEAA2"/>
<path d="M63.1065 87.1067C62.7551 87.097 62.4625 87.3733 62.4524 87.7247C62.4427 88.0761 62.7194 88.3687 63.0704 88.3788C63.4218 88.3886 63.7144 88.1118 63.7245 87.7608C63.7343 87.4094 63.4575 87.1168 63.1065 87.1067Z" fill="#FFEAA2"/>
<path d="M57.341 96.3413C56.8092 96.4625 56.4762 96.9918 56.597 97.524C56.7183 98.0558 57.2475 98.3888 57.7797 98.2679C58.3115 98.1467 58.6445 97.6174 58.5236 97.0853C58.4024 96.5531 57.8731 96.2201 57.341 96.3413Z" fill="#FFEAA2"/>
<path d="M62.1128 89.8299C61.6929 89.9255 61.4299 90.3437 61.5255 90.7633C61.6211 91.1832 62.0392 91.4462 62.4588 91.3506C62.8788 91.255 63.1418 90.8369 63.0462 90.4173C62.9509 89.9973 62.5328 89.7343 62.1128 89.8299Z" fill="#FFEAA2"/>
<path d="M58.9419 91.3559C59.1951 91.2981 59.3535 91.0463 59.2958 90.793C59.2381 90.5398 58.9863 90.3814 58.733 90.4391C58.4797 90.4968 58.3213 90.7487 58.3791 91.0019C58.4364 91.2548 58.6886 91.4136 58.9419 91.3559Z" fill="#FFEAA2"/>
<path d="M73.9212 109.812C74.2672 109.16 74.0189 108.351 73.367 108.005C72.7147 107.659 71.9055 107.907 71.5595 108.559C71.2135 109.211 71.4617 110.02 72.1136 110.366C72.7659 110.713 73.5752 110.464 73.9212 109.812Z" fill="#FFEAA2"/>
<path d="M69.5326 110.351C69.0178 110.078 68.3788 110.274 68.1057 110.789C67.8326 111.304 68.0285 111.942 68.5433 112.216C69.0582 112.489 69.6971 112.293 69.9702 111.778C70.2437 111.263 70.0474 110.624 69.5326 110.351Z" fill="#FFEAA2"/>
<path d="M70.6932 115.853C70.3829 115.689 69.9976 115.807 69.833 116.117C69.6685 116.427 69.7865 116.813 70.0968 116.977C70.4071 117.142 70.7924 117.024 70.9569 116.713C71.1214 116.403 71.0034 116.018 70.6932 115.853Z" fill="#FFEAA2"/>
<path d="M79.8168 117.611C79.0786 117.59 78.4635 118.171 78.4429 118.909C78.422 119.647 79.0036 120.262 79.7414 120.283C80.4796 120.304 81.0947 119.722 81.1153 118.985C81.1358 118.247 80.5546 117.631 79.8168 117.611Z" fill="#FFEAA2"/>
<path d="M139.594 87.4777C139.344 86.9509 138.715 86.7262 138.188 86.9755C137.661 87.2248 137.436 87.8544 137.686 88.3811C137.935 88.9078 138.565 89.1326 139.091 88.8833C139.618 88.634 139.843 88.0044 139.594 87.4777Z" fill="#FFEAA2"/>
<path d="M76.9669 108.555C76.6154 108.545 76.3229 108.822 76.3127 109.173C76.303 109.524 76.5797 109.817 76.9308 109.827C77.2822 109.837 77.5748 109.56 77.5849 109.209C77.5946 108.858 77.3179 108.565 76.9669 108.555Z" fill="#FFEAA2"/>
<path d="M74.8673 114.036C74.3356 114.157 74.0025 114.687 74.1234 115.219C74.2446 115.75 74.7739 116.083 75.3061 115.963C75.8379 115.841 76.1709 115.312 76.05 114.78C75.9291 114.248 75.3991 113.915 74.8673 114.036Z" fill="#FFEAA2"/>
<path d="M75.9732 111.278C75.5532 111.374 75.2902 111.792 75.3858 112.212C75.4814 112.632 75.8996 112.895 76.3192 112.799C76.7391 112.704 77.0022 112.285 76.9065 111.866C76.8109 111.446 76.3932 111.183 75.9732 111.278Z" fill="#FFEAA2"/>
<path d="M72.8032 112.804C73.0565 112.746 73.2149 112.494 73.1571 112.241C73.0994 111.988 72.8476 111.829 72.5943 111.887C72.341 111.945 72.1827 112.197 72.2404 112.45C72.2981 112.703 72.5503 112.862 72.8032 112.804Z" fill="#FFEAA2"/>
<path d="M74.0149 51.493C74.3609 50.8407 74.1127 50.0314 73.4608 49.6855C72.8085 49.3395 71.9992 49.5877 71.6532 50.2396C71.3072 50.8919 71.5555 51.7012 72.2074 52.0472C72.8597 52.3935 73.6689 52.1453 74.0149 51.493Z" fill="#FFEAA2"/>
<path d="M133.863 96.5193C133.873 95.9366 133.409 95.4561 132.826 95.446C132.244 95.4359 131.763 95.9002 131.753 96.4829C131.743 97.0655 132.207 97.5461 132.79 97.5562C133.373 97.5663 133.853 97.1023 133.863 96.5193Z" fill="#FFEAA2"/>
<path d="M138.282 92.399C138.288 92.0476 138.009 91.7579 137.657 91.7518C137.306 91.7457 137.016 92.0256 137.01 92.377C137.004 92.7285 137.284 93.0182 137.635 93.0243C137.987 93.0304 138.276 92.7505 138.282 92.399Z" fill="#FFEAA2"/>
<path d="M81.2963 53.2967C80.5581 53.2758 79.943 53.8573 79.9224 54.5952C79.9015 55.3333 80.4831 55.9485 81.2209 55.969C81.9591 55.9899 82.5742 55.4084 82.5948 54.6706C82.6157 53.9328 82.0341 53.3176 81.2963 53.2967Z" fill="#FFEAA2"/>
<path d="M81.1484 51.5122C81.165 50.9295 80.7057 50.4439 80.123 50.4277C79.5404 50.4111 79.0548 50.8704 79.0385 51.4527C79.0219 52.0353 79.4812 52.5209 80.0635 52.5375C80.6462 52.5538 81.1318 52.0949 81.1484 51.5122Z" fill="#FFEAA2"/>
<path d="M77.0606 50.2361C76.7092 50.2263 76.4166 50.5027 76.4065 50.8541C76.3968 51.2055 76.6735 51.4981 77.0245 51.5082C77.3759 51.518 77.6685 51.2412 77.6786 50.8902C77.6887 50.5388 77.412 50.2458 77.0606 50.2361Z" fill="#FFEAA2"/>
<path d="M138.701 98.269C138.352 97.8497 137.729 97.7931 137.31 98.142C136.891 98.4912 136.834 99.1139 137.183 99.5332C137.532 99.9524 138.155 100.009 138.574 99.6602C138.993 99.3109 139.05 98.6882 138.701 98.269Z" fill="#FFEAA2"/>
<path d="M76.0669 52.9591C75.647 53.0547 75.384 53.4729 75.4796 53.8924C75.5752 54.3124 75.9933 54.5754 76.4133 54.4798C76.8332 54.3842 77.0963 53.966 77.0007 53.5465C76.9047 53.1261 76.4869 52.8635 76.0669 52.9591Z" fill="#FFEAA2"/>
<path d="M72.896 54.485C73.1492 54.4273 73.3076 54.1755 73.2499 53.9222C73.1922 53.6689 72.9404 53.5105 72.6871 53.5683C72.4338 53.626 72.2754 53.8778 72.3332 54.1311C72.3909 54.3844 72.6427 54.5427 72.896 54.485Z" fill="#FFEAA2"/>
<path d="M110.488 79.1949C110.095 79.8205 110.284 80.6456 110.91 81.0378C111.536 81.43 112.361 81.2409 112.753 80.6153C113.145 79.9897 112.956 79.1646 112.33 78.7728C111.705 78.3802 110.88 78.5693 110.488 79.1949Z" fill="#FFEAA2"/>
<path d="M114.904 78.9739C115.398 79.2834 116.049 79.1341 116.359 78.6401C116.668 78.1462 116.519 77.495 116.025 77.1855C115.531 76.8759 114.88 77.0253 114.57 77.5192C114.261 78.0131 114.41 78.6643 114.904 78.9739Z" fill="#FFEAA2"/>
<path d="M114.144 73.4022C114.442 73.5887 114.835 73.4989 115.021 73.2009C115.208 72.9032 115.118 72.5103 114.82 72.3238C114.523 72.1373 114.13 72.2271 113.943 72.5248C113.756 72.8228 113.846 73.2157 114.144 73.4022Z" fill="#FFEAA2"/>
<path d="M105.171 70.9916C105.905 71.0656 106.561 70.5302 106.635 69.7956C106.709 69.061 106.173 68.4055 105.439 68.3315C104.704 68.2576 104.049 68.793 103.975 69.5275C103.9 70.2625 104.436 70.9176 105.171 70.9916Z" fill="#FFEAA2"/>
<path d="M97.5511 79.9222C98.1309 79.9806 98.6487 79.5578 98.7071 78.978C98.7656 78.3982 98.3427 77.8805 97.7629 77.822C97.1831 77.7636 96.6654 78.1864 96.607 78.7662C96.5485 79.3464 96.9714 79.8637 97.5511 79.9222Z" fill="#FFEAA2"/>
<path d="M107.361 80.229C107.71 80.2643 108.022 80.0093 108.057 79.6597C108.093 79.3101 107.838 78.998 107.488 78.963C107.138 78.9276 106.826 79.1827 106.791 79.5323C106.756 79.8815 107.011 80.1936 107.361 80.229Z" fill="#FFEAA2"/>
<path d="M109.849 74.9133C110.388 74.8307 110.759 74.3267 110.676 73.7877C110.594 73.2483 110.09 72.8782 109.551 72.9604C109.011 73.043 108.641 73.547 108.723 74.0861C108.806 74.6258 109.31 74.996 109.849 74.9133Z" fill="#FFEAA2"/>
<path d="M108.547 77.5846C108.973 77.5193 109.265 77.1217 109.2 76.696C109.135 76.2703 108.737 75.978 108.311 76.043C107.886 76.1079 107.594 76.5059 107.658 76.9316C107.723 77.3573 108.121 77.6495 108.547 77.5846Z" fill="#FFEAA2"/>
<path d="M111.819 76.2911C111.563 76.3305 111.386 76.5704 111.425 76.8269C111.465 77.0834 111.705 77.2598 111.961 77.2205C112.218 77.1812 112.394 76.9413 112.355 76.6847C112.315 76.4282 112.076 76.2518 111.819 76.2911Z" fill="#FFEAA2"/>
<path d="M85.4847 81.3468C85.0925 81.9724 85.2816 82.7975 85.9072 83.1896C86.5327 83.5818 87.3579 83.3928 87.7497 82.7672C88.1418 82.1416 87.9528 81.3165 87.3272 80.9243C86.7016 80.5318 85.8768 80.7212 85.4847 81.3468Z" fill="#FFEAA2"/>
<path d="M92.7685 70.3464C93.2624 70.656 93.9136 70.5066 94.2231 70.0127C94.5327 69.5188 94.3833 68.8676 93.8894 68.558C93.3955 68.2485 92.7443 68.3978 92.4347 68.8917C92.1252 69.3853 92.2745 70.0365 92.7685 70.3464Z" fill="#FFEAA2"/>
<path d="M94.0141 76.2579C94.3118 76.4444 94.7047 76.3546 94.8912 76.0566C95.0777 75.7589 94.9879 75.366 94.6899 75.1795C94.3922 74.993 93.9993 75.0828 93.8128 75.3805C93.6266 75.6785 93.7165 76.0714 94.0141 76.2579Z" fill="#FFEAA2"/>
<path d="M78.3523 79.0229C79.0869 79.0968 79.7424 78.5614 79.8164 77.8268C79.8903 77.0923 79.3549 76.4367 78.6204 76.3628C77.8858 76.2888 77.2303 76.8242 77.1563 77.5588C77.082 78.2933 77.6177 78.9489 78.3523 79.0229Z" fill="#FFEAA2"/>
<path d="M78.3706 80.8132C78.3122 81.3929 78.735 81.9107 79.3148 81.9687C79.8946 82.0272 80.4123 81.6044 80.4704 81.0246C80.5288 80.4448 80.106 79.9271 79.5262 79.8686C78.9464 79.8105 78.4291 80.2334 78.3706 80.8132Z" fill="#FFEAA2"/>
<path d="M82.3558 82.3808C82.7054 82.4162 83.0175 82.1611 83.0525 81.8115C83.0878 81.4619 82.8328 81.1498 82.4832 81.1148C82.1336 81.0795 81.8215 81.3346 81.7865 81.6842C81.7511 82.0338 82.0062 82.3458 82.3558 82.3808Z" fill="#FFEAA2"/>
<path d="M88.7709 73.586C89.3103 73.5033 89.6804 72.9993 89.5982 72.4603C89.5155 71.9209 89.0115 71.5508 88.4725 71.633C87.9331 71.7156 87.563 72.2197 87.6452 72.7587C87.7275 73.298 88.2315 73.6686 88.7709 73.586Z" fill="#FFEAA2"/>
<path d="M83.5432 79.7367C83.9689 79.6714 84.2611 79.2738 84.1962 78.8481C84.1312 78.4224 83.7333 78.1301 83.3076 78.1951C82.8818 78.2604 82.5896 78.658 82.6545 79.0837C82.7195 79.5094 83.1174 79.8016 83.5432 79.7367Z" fill="#FFEAA2"/>
<path d="M86.8161 78.4432C86.5596 78.4826 86.3832 78.7225 86.4225 78.979C86.4618 79.2359 86.7017 79.4119 86.9582 79.3726C87.2148 79.3333 87.3912 79.0934 87.3519 78.8368C87.3125 78.5803 87.0726 78.4039 86.8161 78.4432Z" fill="#FFEAA2"/>
<path d="M34.6562 142.58C34.5516 143.311 35.0592 143.988 35.7902 144.093C36.5211 144.198 37.1983 143.69 37.303 142.959C37.4076 142.228 36.9 141.551 36.169 141.446C35.4381 141.342 34.7609 141.85 34.6562 142.58Z" fill="#FFEAA2"/>
<path d="M38.6032 140.587C39.1801 140.67 39.7147 140.269 39.7974 139.692C39.88 139.115 39.4791 138.58 38.9023 138.498C38.3254 138.415 37.7907 138.816 37.7081 139.393C37.6254 139.969 38.0263 140.504 38.6032 140.587Z" fill="#FFEAA2"/>
<path d="M35.6487 135.802C35.9965 135.852 36.319 135.611 36.3688 135.263C36.4186 134.915 36.1769 134.592 35.8291 134.543C35.4813 134.493 35.1587 134.735 35.109 135.082C35.0595 135.43 35.3009 135.753 35.6487 135.802Z" fill="#FFEAA2"/>
<path d="M26.4694 137.24C27.1708 137.009 27.5528 136.254 27.3223 135.553C27.0918 134.851 26.3366 134.469 25.6349 134.7C24.9335 134.93 24.5515 135.685 24.782 136.387C25.0126 137.088 25.7677 137.471 26.4694 137.24Z" fill="#FFEAA2"/>
<path d="M23.1282 148.494C23.682 148.312 23.9832 147.715 23.8014 147.162C23.6196 146.608 23.0232 146.306 22.4694 146.488C21.9156 146.67 21.6143 147.266 21.7961 147.82C21.978 148.374 22.5744 148.675 23.1282 148.494Z" fill="#FFEAA2"/>
<path d="M32.2169 144.795C32.5506 144.685 32.7324 144.325 32.6228 143.992C32.5131 143.658 32.1534 143.476 31.8197 143.586C31.4859 143.695 31.3041 144.055 31.4138 144.389C31.5235 144.722 31.8832 144.904 32.2169 144.795Z" fill="#FFEAA2"/>
<path d="M32.3351 138.926C32.7944 138.632 32.9286 138.021 32.6342 137.562C32.3401 137.103 31.729 136.968 31.2697 137.263C30.8104 137.557 30.6762 138.168 30.9706 138.627C31.265 139.087 31.8758 139.22 32.3351 138.926Z" fill="#FFEAA2"/>
<path d="M32.2288 141.896C32.5914 141.664 32.6975 141.182 32.4651 140.819C32.2328 140.456 31.7504 140.35 31.3878 140.583C31.0252 140.815 30.9192 141.297 31.1515 141.66C31.3838 142.023 31.8662 142.128 32.2288 141.896Z" fill="#FFEAA2"/>
<path d="M34.6952 139.386C34.4766 139.526 34.4128 139.817 34.5527 140.036C34.6927 140.254 34.9835 140.318 35.2021 140.178C35.4208 140.038 35.4846 139.747 35.3447 139.529C35.205 139.31 34.9142 139.246 34.6952 139.386Z" fill="#FFEAA2"/>
<path d="M12.6758 154.691C12.5711 155.422 13.0788 156.099 13.8097 156.204C14.5407 156.309 15.2179 155.801 15.3225 155.07C15.4271 154.339 14.9195 153.662 14.1885 153.557C13.458 153.453 12.7808 153.96 12.6758 154.691Z" fill="#FFEAA2"/>
<path d="M14.8707 141.682C15.4476 141.765 15.9823 141.364 16.0649 140.787C16.1476 140.21 15.7467 139.675 15.1698 139.593C14.5929 139.51 14.0583 139.911 13.9756 140.488C13.893 141.065 14.2938 141.599 14.8707 141.682Z" fill="#FFEAA2"/>
<path d="M18.4085 146.579C18.7563 146.629 19.0789 146.387 19.1287 146.04C19.1785 145.692 18.9367 145.369 18.5889 145.319C18.2411 145.27 17.9186 145.511 17.8688 145.859C17.819 146.207 18.0607 146.53 18.4085 146.579Z" fill="#FFEAA2"/>
<path d="M5.21452 155.461C5.91588 155.23 6.29759 154.475 6.06741 153.774C5.83687 153.072 5.08175 152.69 4.38002 152.921C3.67866 153.151 3.29659 153.906 3.52713 154.608C3.75767 155.309 4.51315 155.691 5.21452 155.461Z" fill="#FFEAA2"/>
<path d="M5.95822 157.09C6.14006 157.644 6.73643 157.945 7.29024 157.763C7.84404 157.581 8.1453 156.985 7.96346 156.431C7.78163 155.877 7.18525 155.576 6.63145 155.758C6.078 155.94 5.77639 156.536 5.95822 157.09Z" fill="#FFEAA2"/>
<path d="M10.2364 156.906C10.5701 156.796 10.752 156.437 10.6423 156.103C10.5326 155.769 10.1729 155.587 9.8392 155.697C9.50547 155.806 9.32364 156.166 9.43331 156.5C9.54299 156.834 9.90269 157.015 10.2364 156.906Z" fill="#FFEAA2"/>
<path d="M12.5314 146.265C12.9906 145.971 13.1249 145.359 12.8305 144.9C12.5364 144.441 11.9253 144.307 11.466 144.601C11.0067 144.895 10.8725 145.506 11.1669 145.965C11.4609 146.425 12.0721 146.559 12.5314 146.265Z" fill="#FFEAA2"/>
<path d="M10.2483 154.007C10.6109 153.775 10.717 153.293 10.4846 152.93C10.2523 152.567 9.76993 152.461 9.40734 152.693C9.04476 152.926 8.93869 153.408 9.17103 153.771C9.40338 154.134 9.88574 154.239 10.2483 154.007Z" fill="#FFEAA2"/>
<path d="M12.7148 151.497C12.4961 151.637 12.4323 151.928 12.5723 152.147C12.7123 152.365 13.003 152.429 13.2217 152.289C13.4403 152.149 13.5042 151.858 13.3642 151.64C13.2242 151.421 12.9334 151.357 12.7148 151.497Z" fill="#FFEAA2"/>
<path d="M78.4861 79.9204C83.0612 79.9204 86.7701 77.3071 86.7701 74.0836C86.7701 70.86 83.0612 68.2468 78.4861 68.2468C73.911 68.2468 70.2021 70.86 70.2021 74.0836C70.2021 77.3071 73.911 79.9204 78.4861 79.9204Z" fill="url(#paint8_linear)"/>
<path d="M77.6069 71.8799C78.338 71.8799 78.9306 71.2872 78.9306 70.5561C78.9306 69.8251 78.338 69.2324 77.6069 69.2324C76.8759 69.2324 76.2832 69.8251 76.2832 70.5561C76.2832 71.2872 76.8759 71.8799 77.6069 71.8799Z" fill="url(#paint9_linear)"/>
<path d="M75.1493 75.0237C75.7264 75.0237 76.1941 74.556 76.1941 73.9789C76.1941 73.4019 75.7264 72.9341 75.1493 72.9341C74.5723 72.9341 74.1045 73.4019 74.1045 73.9789C74.1045 74.556 74.5723 75.0237 75.1493 75.0237Z" fill="url(#paint10_linear)"/>
<path d="M79.7041 75.4855C80.052 75.4855 80.3341 75.2034 80.3341 74.8555C80.3341 74.5076 80.052 74.2256 79.7041 74.2256C79.3562 74.2256 79.0742 74.5076 79.0742 74.8555C79.0742 75.2034 79.3562 75.4855 79.7041 75.4855Z" fill="url(#paint11_linear)"/>
<path d="M44.1785 109.637C48.7536 109.637 52.4625 107.024 52.4625 103.8C52.4625 100.577 48.7536 97.9636 44.1785 97.9636C39.6034 97.9636 35.8945 100.577 35.8945 103.8C35.8945 107.024 39.6034 109.637 44.1785 109.637Z" fill="url(#paint12_linear)"/>
<path d="M43.2993 101.597C44.0304 101.597 44.623 101.004 44.623 100.273C44.623 99.5419 44.0304 98.9492 43.2993 98.9492C42.5682 98.9492 41.9756 99.5419 41.9756 100.273C41.9756 101.004 42.5682 101.597 43.2993 101.597Z" fill="url(#paint13_linear)"/>
<path d="M40.8417 104.741C41.4187 104.741 41.8865 104.273 41.8865 103.696C41.8865 103.119 41.4187 102.651 40.8417 102.651C40.2647 102.651 39.7969 103.119 39.7969 103.696C39.7969 104.273 40.2647 104.741 40.8417 104.741Z" fill="url(#paint14_linear)"/>
<path d="M45.3965 105.202C45.7444 105.202 46.0265 104.92 46.0265 104.572C46.0265 104.224 45.7444 103.942 45.3965 103.942C45.0486 103.942 44.7666 104.224 44.7666 104.572C44.7666 104.92 45.0486 105.202 45.3965 105.202Z" fill="url(#paint15_linear)"/>
<path d="M86.8865 118.182C91.4616 118.182 95.1705 115.569 95.1705 112.346C95.1705 109.122 91.4616 106.509 86.8865 106.509C82.3114 106.509 78.6025 109.122 78.6025 112.346C78.6025 115.569 82.3114 118.182 86.8865 118.182Z" fill="url(#paint16_linear)"/>
<path d="M86.0073 110.142C86.7384 110.142 87.331 109.549 87.331 108.818C87.331 108.087 86.7384 107.494 86.0073 107.494C85.2762 107.494 84.6836 108.087 84.6836 108.818C84.6836 109.549 85.2762 110.142 86.0073 110.142Z" fill="url(#paint17_linear)"/>
<path d="M83.5497 113.286C84.1268 113.286 84.5945 112.818 84.5945 112.241C84.5945 111.664 84.1268 111.196 83.5497 111.196C82.9727 111.196 82.5049 111.664 82.5049 112.241C82.5049 112.818 82.9727 113.286 83.5497 113.286Z" fill="url(#paint18_linear)"/>
<path d="M88.1045 113.747C88.4524 113.747 88.7345 113.465 88.7345 113.117C88.7345 112.77 88.4524 112.488 88.1045 112.488C87.7566 112.488 87.4746 112.77 87.4746 113.117C87.4746 113.465 87.7566 113.747 88.1045 113.747Z" fill="url(#paint19_linear)"/>
<path d="M147.979 98.861C152.554 98.861 156.263 96.2478 156.263 93.0243C156.263 89.8007 152.554 87.1875 147.979 87.1875C143.404 87.1875 139.695 89.8007 139.695 93.0243C139.695 96.2478 143.404 98.861 147.979 98.861Z" fill="url(#paint20_linear)"/>
<path d="M147.1 90.821C147.831 90.821 148.424 90.2284 148.424 89.4973C148.424 88.7662 147.831 88.1736 147.1 88.1736C146.369 88.1736 145.776 88.7662 145.776 89.4973C145.776 90.2284 146.369 90.821 147.1 90.821Z" fill="url(#paint21_linear)"/>
<path d="M144.642 93.9649C145.22 93.9649 145.687 93.4971 145.687 92.9201C145.687 92.343 145.22 91.8752 144.642 91.8752C144.065 91.8752 143.598 92.343 143.598 92.9201C143.598 93.4971 144.065 93.9649 144.642 93.9649Z" fill="url(#paint22_linear)"/>
<path d="M149.197 94.4266C149.545 94.4266 149.827 94.1446 149.827 93.7967C149.827 93.4488 149.545 93.1667 149.197 93.1667C148.849 93.1667 148.567 93.4488 148.567 93.7967C148.567 94.1446 148.849 94.4266 149.197 94.4266Z" fill="url(#paint23_linear)"/>
<path d="M78.9305 45.2094C83.5056 45.2094 87.2144 42.5962 87.2144 39.3727C87.2144 36.1491 83.5056 33.5359 78.9305 33.5359C74.3553 33.5359 70.6465 36.1491 70.6465 39.3727C70.6465 42.5962 74.3553 45.2094 78.9305 45.2094Z" fill="url(#paint24_linear)"/>
<path d="M78.0513 37.1689C78.7823 37.1689 79.375 36.5763 79.375 35.8452C79.375 35.1141 78.7823 34.5215 78.0513 34.5215C77.3202 34.5215 76.7275 35.1141 76.7275 35.8452C76.7275 36.5763 77.3202 37.1689 78.0513 37.1689Z" fill="url(#paint25_linear)"/>
<path d="M75.5937 40.3128C76.1707 40.3128 76.6385 39.845 76.6385 39.268C76.6385 38.6909 76.1707 38.2231 75.5937 38.2231C75.0166 38.2231 74.5488 38.6909 74.5488 39.268C74.5488 39.845 75.0166 40.3128 75.5937 40.3128Z" fill="url(#paint26_linear)"/>
<path d="M80.1485 40.7745C80.4964 40.7745 80.7784 40.4925 80.7784 40.1446C80.7784 39.7967 80.4964 39.5146 80.1485 39.5146C79.8006 39.5146 79.5186 39.7967 79.5186 40.1446C79.5186 40.4925 79.8006 40.7745 80.1485 40.7745Z" fill="url(#paint27_linear)"/>
<path d="M91.4609 46.0163C83.4998 40.0128 70.592 40.0128 62.631 46.0163C54.6699 52.0197 54.6699 61.7533 62.631 67.7568C70.592 73.7602 83.4998 73.7602 91.4609 67.7568C99.4219 61.7533 99.4219 52.0197 91.4609 46.0163ZM67.8919 60.7951C62.837 57.4654 62.837 52.0655 67.8919 48.7362C72.9469 45.4065 81.1428 45.408 86.1978 48.7377C91.2527 52.0673 91.2545 57.4658 86.1999 60.7951C81.1446 64.1248 72.9465 64.1248 67.8919 60.7951Z" fill="url(#paint28_linear)"/>
<path d="M65.0548 64.365C71.6763 69.1783 82.415 69.1783 89.0362 64.365C95.6594 59.5504 95.6576 51.7459 89.0362 46.933C82.4129 42.1184 71.6781 42.1184 65.0548 46.933C58.4333 51.7459 58.4312 59.5504 65.0548 64.365ZM86.1993 48.7362C91.2543 52.0659 91.2543 57.4658 86.1993 60.7951C81.1444 64.1248 72.9484 64.1233 67.8935 60.7936C62.8385 57.464 62.8367 52.0655 67.8913 48.7362C72.9466 45.4069 81.1444 45.4069 86.1993 48.7362Z" fill="url(#paint29_linear)"/>
<path d="M11.5236 138.803C14.5059 139.954 18.3089 139.101 20.0183 136.898C20.3545 136.464 20.2055 135.954 19.7372 135.432C19.2195 134.855 19.4053 134.094 20.1161 133.629L20.2362 133.551C21.1544 132.95 20.9441 131.89 19.8267 131.49L15.38 129.896C14.2627 129.496 12.9195 129.999 12.7683 130.874C12.6518 131.549 11.8667 132.071 10.902 132.11C10.1303 132.142 9.52668 132.331 9.21893 132.728C7.50917 134.932 8.54138 137.652 11.5236 138.803Z" fill="url(#paint30_linear)"/>
<path d="M41.3803 115.719C34.585 110.594 23.5677 110.594 16.7723 115.719C9.97694 120.843 9.97694 129.151 16.7723 134.275C23.5677 139.399 34.585 139.399 41.3803 134.275C48.1753 129.151 48.1753 120.843 41.3803 115.719ZM21.2626 128.333C16.948 125.491 16.948 120.882 21.2626 118.04C25.5773 115.198 32.5729 115.199 36.8875 118.041C41.2021 120.883 41.2039 125.491 36.8893 128.333C32.575 131.175 25.5773 131.175 21.2626 128.333Z" fill="url(#paint31_linear)"/>
<path d="M18.841 131.38C24.4927 135.488 33.6588 135.488 39.3105 131.38C44.964 127.271 44.9622 120.609 39.3105 116.5C33.657 112.391 24.4945 112.391 18.841 116.5C13.1893 120.609 13.1875 127.271 18.841 131.38ZM36.8892 118.04C41.2039 120.882 41.2039 125.491 36.8892 128.333C32.5746 131.175 25.579 131.174 21.2644 128.332C16.9498 125.49 16.948 120.882 21.2626 118.04C25.5768 115.198 32.5746 115.198 36.8892 118.04Z" fill="url(#paint32_linear)"/>
<path d="M122.575 97.33C119.593 96.1787 115.79 97.032 114.08 99.2356C113.744 99.6693 113.893 100.179 114.361 100.701C114.879 101.278 114.693 102.04 113.982 102.504L113.862 102.583C112.944 103.183 113.154 104.243 114.272 104.643L118.718 106.237C119.836 106.637 121.179 106.135 121.33 105.259C121.447 104.585 122.232 104.062 123.197 104.023C123.968 103.991 124.572 103.802 124.88 103.406C126.589 101.201 125.557 98.4812 122.575 97.33Z" fill="url(#paint33_linear)"/>
<path d="M117.183 98.5594C125.87 98.5594 132.912 93.5978 132.912 87.4772C132.912 81.3567 125.87 76.395 117.183 76.395C108.496 76.395 101.454 81.3567 101.454 87.4772C101.454 93.5978 108.496 98.5594 117.183 98.5594Z" fill="url(#paint34_linear)"/>
<path d="M115.514 83.2931C116.902 83.2931 118.027 82.168 118.027 80.7802C118.027 79.3924 116.902 78.2673 115.514 78.2673C114.126 78.2673 113.001 79.3924 113.001 80.7802C113.001 82.168 114.126 83.2931 115.514 83.2931Z" fill="url(#paint35_linear)"/>
<path d="M110.847 89.2626C111.943 89.2626 112.831 88.3743 112.831 87.2786C112.831 86.1829 111.943 85.2947 110.847 85.2947C109.752 85.2947 108.863 86.1829 108.863 87.2786C108.863 88.3743 109.752 89.2626 110.847 89.2626Z" fill="url(#paint36_linear)"/>
<path d="M119.495 90.1393C120.155 90.1393 120.691 89.6038 120.691 88.9433C120.691 88.2828 120.155 87.7473 119.495 87.7473C118.834 87.7473 118.299 88.2828 118.299 88.9433C118.299 89.6038 118.834 90.1393 119.495 90.1393Z" fill="url(#paint37_linear)"/>
<path d="M50.8284 127.809C59.5151 127.809 66.5571 122.847 66.5571 116.727C66.5571 110.606 59.5151 105.645 50.8284 105.645C42.1416 105.645 35.0996 110.606 35.0996 116.727C35.0996 122.847 42.1416 127.809 50.8284 127.809Z" fill="url(#paint38_linear)"/>
<path d="M49.1584 112.543C50.5462 112.543 51.6712 111.418 51.6712 110.03C51.6712 108.642 50.5462 107.517 49.1584 107.517C47.7706 107.517 46.6455 108.642 46.6455 110.03C46.6455 111.418 47.7706 112.543 49.1584 112.543Z" fill="url(#paint39_linear)"/>
<path d="M44.4927 118.512C45.5884 118.512 46.4767 117.624 46.4767 116.528C46.4767 115.432 45.5884 114.544 44.4927 114.544C43.397 114.544 42.5088 115.432 42.5088 116.528C42.5088 117.624 43.397 118.512 44.4927 118.512Z" fill="url(#paint40_linear)"/>
<path d="M53.1403 119.389C53.8009 119.389 54.3363 118.853 54.3363 118.193C54.3363 117.532 53.8009 116.997 53.1403 116.997C52.4798 116.997 51.9443 117.532 51.9443 118.193C51.9443 118.853 52.4798 119.389 53.1403 119.389Z" fill="url(#paint41_linear)"/>
<path d="M84.3376 83.2101C81.3553 82.0588 77.5523 82.9121 75.8429 85.1158C75.5067 85.5494 75.6557 86.0589 76.124 86.5809C76.6417 87.1582 76.4559 87.9198 75.7452 88.3845L75.625 88.4628C74.7068 89.0631 74.9172 90.1231 76.0345 90.5236L80.4812 92.1172C81.5985 92.5176 82.9417 92.0147 83.0929 91.1394C83.2094 90.4648 83.9945 89.9424 84.9592 89.903C85.7309 89.8716 86.3345 89.6826 86.6423 89.2857C88.3517 87.0817 87.3198 84.3617 84.3376 83.2101Z" fill="url(#paint42_linear)"/>
<path d="M88.7956 118.02C92.4489 117.412 95.171 115.105 95.171 112.345C95.171 109.122 91.4621 106.509 86.887 106.509C83.9762 106.509 81.4211 107.569 79.9434 109.168L88.7956 118.02Z" fill="url(#paint43_linear)"/>
<path d="M103.824 89.6916C97.0283 84.5673 86.011 84.5673 79.2157 89.6916C72.4203 94.8158 72.4203 103.124 79.2157 108.248C86.011 113.372 97.0283 113.372 103.824 108.248C110.619 103.124 110.619 94.8158 103.824 89.6916ZM83.7064 102.306C79.3917 99.4641 79.3917 94.8551 83.7064 92.0132C88.021 89.1713 95.0166 89.1724 99.3312 92.0143C103.646 94.8562 103.648 99.4641 99.333 102.306C95.0184 105.148 88.021 105.148 83.7064 102.306Z" fill="url(#paint44_linear)"/>
<path d="M81.2853 105.353C86.937 109.461 96.1031 109.461 101.755 105.353C107.408 101.243 107.406 94.5816 101.755 90.4734C96.1013 86.364 86.9388 86.364 81.2853 90.4734C75.6337 94.582 75.6318 101.243 81.2853 105.353ZM99.3332 92.0132C103.648 94.8551 103.648 99.4641 99.3332 102.306C95.0186 105.148 88.023 105.147 83.7084 102.305C79.3937 99.463 79.3919 94.8551 83.7066 92.0132C88.0212 89.1709 95.0186 89.1709 99.3332 92.0132Z" fill="url(#paint45_linear)"/>
<path d="M27.4537 100.531C23.4886 100.531 20.2744 102.82 20.2744 105.645C20.2744 108.469 23.4886 110.758 27.4537 110.758C31.4187 110.758 34.6329 108.469 34.6329 105.645C34.6329 102.82 31.4187 100.531 27.4537 100.531ZM27.4537 107.815C25.7706 107.815 24.4065 106.844 24.4065 105.645C24.4065 104.446 25.7706 103.474 27.4537 103.474C29.1367 103.474 30.5008 104.446 30.5008 105.645C30.5012 106.844 29.1367 107.815 27.4537 107.815Z" fill="url(#paint46_linear)"/>
<path d="M63.8394 90.5652C59.8744 90.5652 56.6602 92.8544 56.6602 95.6786C56.6602 98.5028 59.8744 100.792 63.8394 100.792C67.8044 100.792 71.0187 98.5028 71.0187 95.6786C71.0187 92.8544 67.8041 90.5652 63.8394 90.5652ZM63.8394 97.8487C62.1564 97.8487 60.7922 96.8771 60.7922 95.6782C60.7922 94.4797 62.1564 93.5077 63.8394 93.5077C65.5225 93.5077 66.8866 94.4793 66.8866 95.6782C66.8866 96.8771 65.5221 97.8487 63.8394 97.8487Z" fill="url(#paint47_linear)"/>
<path d="M110.177 64.835C106.212 64.835 102.998 67.1241 102.998 69.9484C102.998 72.7726 106.212 75.0618 110.177 75.0618C114.142 75.0618 117.357 72.7726 117.357 69.9484C117.357 67.1241 114.142 64.835 110.177 64.835ZM110.177 72.1188C108.494 72.1188 107.13 71.1473 107.13 69.9484C107.13 68.7495 108.494 67.7779 110.177 67.7779C111.86 67.7779 113.224 68.7495 113.224 69.9484C113.224 71.1473 111.86 72.1188 110.177 72.1188Z" fill="url(#paint48_linear)"/>
<path d="M13.2505 140.258C9.28552 140.258 6.07129 142.547 6.07129 145.371C6.07129 148.195 9.28552 150.484 13.2505 150.484C17.2156 150.484 20.4298 148.195 20.4298 145.371C20.4298 142.547 17.2156 140.258 13.2505 140.258ZM13.2505 147.541C11.5675 147.541 10.2034 146.569 10.2034 145.371C10.2034 144.172 11.5675 143.2 13.2505 143.2C14.9336 143.2 16.2977 144.172 16.2977 145.371C16.2977 146.569 14.9336 147.541 13.2505 147.541Z" fill="url(#paint49_linear)"/>
<path d="M52.4973 89.3495C61.1841 89.3495 68.2261 84.3878 68.2261 78.2673C68.2261 72.1467 61.1841 67.1851 52.4973 67.1851C43.8106 67.1851 36.7686 72.1467 36.7686 78.2673C36.7686 84.3878 43.8106 89.3495 52.4973 89.3495Z" fill="url(#paint50_linear)"/>
<path d="M50.8283 74.0831C52.2161 74.0831 53.3412 72.958 53.3412 71.5702C53.3412 70.1824 52.2161 69.0574 50.8283 69.0574C49.4405 69.0574 48.3154 70.1824 48.3154 71.5702C48.3154 72.958 49.4405 74.0831 50.8283 74.0831Z" fill="url(#paint51_linear)"/>
<path d="M46.1617 80.0526C47.2574 80.0526 48.1456 79.1644 48.1456 78.0687C48.1456 76.973 47.2574 76.0847 46.1617 76.0847C45.066 76.0847 44.1777 76.973 44.1777 78.0687C44.1777 79.1644 45.066 80.0526 46.1617 80.0526Z" fill="url(#paint52_linear)"/>
<path d="M54.8093 80.9294C55.4698 80.9294 56.0053 80.3939 56.0053 79.7334C56.0053 79.0728 55.4698 78.5374 54.8093 78.5374C54.1487 78.5374 53.6133 79.0728 53.6133 79.7334C53.6133 80.3939 54.1487 80.9294 54.8093 80.9294Z" fill="url(#paint53_linear)"/>
<path d="M108.384 49.7597C105.402 48.6084 101.599 49.4617 99.8898 51.6653C99.5535 52.099 99.7025 52.6084 100.171 53.1305C100.689 53.7077 100.503 54.4694 99.792 54.934L99.6719 55.0123C98.7537 55.6127 98.964 56.6727 100.081 57.0731L104.528 58.6667C105.645 59.0672 106.989 58.5643 107.14 57.689C107.256 57.0143 108.041 56.4919 109.006 56.4526C109.778 56.4212 110.381 56.2321 110.689 55.8353C112.399 53.6309 111.367 50.9109 108.384 49.7597Z" fill="url(#paint54_linear)"/>
<path d="M77.4933 37.6385C90.9874 42.7684 103.749 50.3835 120.096 62.3908C136.443 74.398 149.019 92.3752 158.35 104.011C163.363 110.261 177.163 109.125 181.72 102.004C184.764 97.2483 184.773 87.6406 181.672 83.2423C172.521 70.2649 157.113 55.0196 138.08 41.0396C119.047 27.0595 100.219 17.1574 85.6218 12.692C80.6747 11.1785 75.2496 13.3992 72.2064 18.1547C67.6493 25.2762 70.2448 34.8828 77.4933 37.6385Z" fill="url(#paint55_linear)"/>
</g>
<defs>
<linearGradient id="paint0_linear" x1="80.5831" y1="107.83" x2="90.2918" y2="129.115" gradientUnits="userSpaceOnUse">
<stop stop-color="#FAA68E"/>
<stop offset="0.2061" stop-color="#FBA682"/>
<stop offset="0.5808" stop-color="#FDA861"/>
<stop offset="1" stop-color="#FFA936"/>
</linearGradient>
<linearGradient id="paint1_linear" x1="90.7383" y1="130.526" x2="82.5435" y2="106.823" gradientUnits="userSpaceOnUse">
<stop stop-color="#F82814" stop-opacity="0"/>
<stop offset="0.2454" stop-color="#F12817" stop-opacity="0.245"/>
<stop offset="0.6052" stop-color="#DD2820" stop-opacity="0.605"/>
<stop offset="1" stop-color="#C0272D"/>
</linearGradient>
<linearGradient id="paint2_linear" x1="52.3373" y1="79.7965" x2="95.5748" y2="131.578" gradientUnits="userSpaceOnUse">
<stop stop-color="#FFD945"/>
<stop offset="0.3043" stop-color="#FFCD3E"/>
<stop offset="0.8558" stop-color="#FFAD2B"/>
<stop offset="1" stop-color="#FFA325"/>
</linearGradient>
<linearGradient id="paint3_linear" x1="112.197" y1="76.9592" x2="127.538" y2="55.2108" gradientUnits="userSpaceOnUse">
<stop stop-color="#F82814" stop-opacity="0"/>
<stop offset="1" stop-color="#C0272D"/>
</linearGradient>
<linearGradient id="paint4_linear" x1="105.078" y1="85.5369" x2="35.9491" y2="-21.392" gradientUnits="userSpaceOnUse">
<stop stop-color="#F82814" stop-opacity="0"/>
<stop offset="1" stop-color="#C0272D"/>
</linearGradient>
<linearGradient id="paint5_linear" x1="69.6995" y1="93.3134" x2="40.5727" y2="38.7488" gradientUnits="userSpaceOnUse">
<stop stop-color="#F82814" stop-opacity="0"/>
<stop offset="1" stop-color="#C0272D"/>
</linearGradient>
<linearGradient id="paint6_linear" x1="115.981" y1="108.638" x2="86.9837" y2="54.0088" gradientUnits="userSpaceOnUse">
<stop stop-color="#F82814" stop-opacity="0"/>
<stop offset="1" stop-color="#C0272D"/>
</linearGradient>
<linearGradient id="paint7_linear" x1="51.8475" y1="138.505" x2="28.5459" y2="98.8925" gradientUnits="userSpaceOnUse">
<stop stop-color="#F82814" stop-opacity="0"/>
<stop offset="1" stop-color="#C0272D"/>
</linearGradient>
<linearGradient id="paint8_linear" x1="76.7179" y1="69.7989" x2="80.2633" y2="78.3899" gradientUnits="userSpaceOnUse">
<stop stop-color="#BADA00"/>
<stop offset="0.2269" stop-color="#B0CE00"/>
<stop offset="0.6378" stop-color="#95AE00"/>
<stop offset="1" stop-color="#798C00"/>
</linearGradient>
<linearGradient id="paint9_linear" x1="78.3811" y1="72.812" x2="74.9993" y2="67.5346" gradientUnits="userSpaceOnUse">
<stop stop-color="#798C00" stop-opacity="0"/>
<stop offset="0.6542" stop-color="#556100" stop-opacity="0.654"/>
<stop offset="1" stop-color="#464F00"/>
</linearGradient>
<linearGradient id="paint10_linear" x1="75.6936" y1="75.8794" x2="73.0236" y2="71.7131" gradientUnits="userSpaceOnUse">
<stop stop-color="#798C00" stop-opacity="0"/>
<stop offset="0.6542" stop-color="#556100" stop-opacity="0.654"/>
<stop offset="1" stop-color="#464F00"/>
</linearGradient>
<linearGradient id="paint11_linear" x1="79.9097" y1="76.2239" x2="78.3004" y2="73.712" gradientUnits="userSpaceOnUse">
<stop stop-color="#798C00" stop-opacity="0"/>
<stop offset="0.6542" stop-color="#556100" stop-opacity="0.654"/>
<stop offset="1" stop-color="#464F00"/>
</linearGradient>
<linearGradient id="paint12_linear" x1="42.4103" y1="99.5157" x2="45.9557" y2="108.107" gradientUnits="userSpaceOnUse">
<stop stop-color="#BADA00"/>
<stop offset="0.2269" stop-color="#B0CE00"/>
<stop offset="0.6378" stop-color="#95AE00"/>
<stop offset="1" stop-color="#798C00"/>
</linearGradient>
<linearGradient id="paint13_linear" x1="44.059" y1="102.548" x2="40.6773" y2="97.2705" gradientUnits="userSpaceOnUse">
<stop stop-color="#798C00" stop-opacity="0"/>
<stop offset="0.6542" stop-color="#556100" stop-opacity="0.654"/>
<stop offset="1" stop-color="#464F00"/>
</linearGradient>
<linearGradient id="paint14_linear" x1="41.3715" y1="105.615" x2="38.7019" y2="101.449" gradientUnits="userSpaceOnUse">
<stop stop-color="#798C00" stop-opacity="0"/>
<stop offset="0.6542" stop-color="#556100" stop-opacity="0.654"/>
<stop offset="1" stop-color="#464F00"/>
</linearGradient>
<linearGradient id="paint15_linear" x1="45.5876" y1="105.96" x2="43.978" y2="103.448" gradientUnits="userSpaceOnUse">
<stop stop-color="#798C00" stop-opacity="0"/>
<stop offset="0.6542" stop-color="#556100" stop-opacity="0.654"/>
<stop offset="1" stop-color="#464F00"/>
</linearGradient>
<linearGradient id="paint16_linear" x1="85.1183" y1="108.061" x2="88.6637" y2="116.652" gradientUnits="userSpaceOnUse">
<stop stop-color="#BADA00"/>
<stop offset="0.2269" stop-color="#B0CE00"/>
<stop offset="0.6378" stop-color="#95AE00"/>
<stop offset="1" stop-color="#798C00"/>
</linearGradient>
<linearGradient id="paint17_linear" x1="86.7899" y1="111.093" x2="83.4082" y2="105.815" gradientUnits="userSpaceOnUse">
<stop stop-color="#798C00" stop-opacity="0"/>
<stop offset="0.6542" stop-color="#556100" stop-opacity="0.654"/>
<stop offset="1" stop-color="#464F00"/>
</linearGradient>
<linearGradient id="paint18_linear" x1="84.1024" y1="114.16" x2="81.4328" y2="109.994" gradientUnits="userSpaceOnUse">
<stop stop-color="#798C00" stop-opacity="0"/>
<stop offset="0.6542" stop-color="#556100" stop-opacity="0.654"/>
<stop offset="1" stop-color="#464F00"/>
</linearGradient>
<linearGradient id="paint19_linear" x1="88.3189" y1="114.505" x2="86.7093" y2="111.993" gradientUnits="userSpaceOnUse">
<stop stop-color="#798C00" stop-opacity="0"/>
<stop offset="0.6542" stop-color="#556100" stop-opacity="0.654"/>
<stop offset="1" stop-color="#464F00"/>
</linearGradient>
<linearGradient id="paint20_linear" x1="146.211" y1="88.74" x2="149.757" y2="97.3306" gradientUnits="userSpaceOnUse">
<stop stop-color="#BADA00"/>
<stop offset="0.2269" stop-color="#B0CE00"/>
<stop offset="0.6378" stop-color="#95AE00"/>
<stop offset="1" stop-color="#798C00"/>
</linearGradient>
<linearGradient id="paint21_linear" x1="147.912" y1="91.755" x2="144.53" y2="86.4776" gradientUnits="userSpaceOnUse">
<stop stop-color="#798C00" stop-opacity="0"/>
<stop offset="0.6542" stop-color="#556100" stop-opacity="0.654"/>
<stop offset="1" stop-color="#464F00"/>
</linearGradient>
<linearGradient id="paint22_linear" x1="145.224" y1="94.8224" x2="142.554" y2="90.6561" gradientUnits="userSpaceOnUse">
<stop stop-color="#798C00" stop-opacity="0"/>
<stop offset="0.6542" stop-color="#556100" stop-opacity="0.654"/>
<stop offset="1" stop-color="#464F00"/>
</linearGradient>
<linearGradient id="paint23_linear" x1="149.441" y1="95.1668" x2="147.831" y2="92.655" gradientUnits="userSpaceOnUse">
<stop stop-color="#798C00" stop-opacity="0"/>
<stop offset="0.6542" stop-color="#556100" stop-opacity="0.654"/>
<stop offset="1" stop-color="#464F00"/>
</linearGradient>
<linearGradient id="paint24_linear" x1="77.1622" y1="35.088" x2="80.7077" y2="43.679" gradientUnits="userSpaceOnUse">
<stop stop-color="#BADA00"/>
<stop offset="0.2269" stop-color="#B0CE00"/>
<stop offset="0.6378" stop-color="#95AE00"/>
<stop offset="1" stop-color="#798C00"/>
</linearGradient>
<linearGradient id="paint25_linear" x1="78.8216" y1="38.0832" x2="75.4398" y2="32.8058" gradientUnits="userSpaceOnUse">
<stop stop-color="#798C00" stop-opacity="0"/>
<stop offset="0.6542" stop-color="#556100" stop-opacity="0.654"/>
<stop offset="1" stop-color="#464F00"/>
</linearGradient>
<linearGradient id="paint26_linear" x1="76.1344" y1="41.1505" x2="73.4644" y2="36.9842" gradientUnits="userSpaceOnUse">
<stop stop-color="#798C00" stop-opacity="0"/>
<stop offset="0.6542" stop-color="#556100" stop-opacity="0.654"/>
<stop offset="1" stop-color="#464F00"/>
</linearGradient>
<linearGradient id="paint27_linear" x1="80.3509" y1="41.495" x2="78.7412" y2="38.9835" gradientUnits="userSpaceOnUse">
<stop stop-color="#798C00" stop-opacity="0"/>
<stop offset="0.6542" stop-color="#556100" stop-opacity="0.654"/>
<stop offset="1" stop-color="#464F00"/>
</linearGradient>
<linearGradient id="paint28_linear" x1="81.732" y1="43.0746" x2="75.3699" y2="61.6409" gradientUnits="userSpaceOnUse">
<stop stop-color="#FFDECF"/>
<stop offset="0.3791" stop-color="#FDC4B0"/>
<stop offset="0.7655" stop-color="#FBAE97"/>
<stop offset="1" stop-color="#FAA68E"/>
</linearGradient>
<linearGradient id="paint29_linear" x1="73.3475" y1="66.6867" x2="78.4819" y2="51.7028" gradientUnits="userSpaceOnUse">
<stop stop-color="#FFDECF"/>
<stop offset="0.3791" stop-color="#FDC4B0"/>
<stop offset="0.7655" stop-color="#FBAE97"/>
<stop offset="1" stop-color="#FAA68E"/>
</linearGradient>
<linearGradient id="paint30_linear" x1="13.5487" y1="132.419" x2="19.3739" y2="141.934" gradientUnits="userSpaceOnUse">
<stop stop-color="#A57C52"/>
<stop offset="0.1339" stop-color="#A26C4A"/>
<stop offset="0.5155" stop-color="#994336"/>
<stop offset="0.8174" stop-color="#942A2A"/>
<stop offset="1" stop-color="#922125"/>
</linearGradient>
<linearGradient id="paint31_linear" x1="33.0791" y1="113.19" x2="27.6488" y2="129.037" gradientUnits="userSpaceOnUse">
<stop stop-color="#FFDECF"/>
<stop offset="0.3791" stop-color="#FDC4B0"/>
<stop offset="0.7655" stop-color="#FBAE97"/>
<stop offset="1" stop-color="#FAA68E"/>
</linearGradient>
<linearGradient id="paint32_linear" x1="25.9423" y1="133.341" x2="30.3248" y2="120.552" gradientUnits="userSpaceOnUse">
<stop stop-color="#FFDECF"/>
<stop offset="0.3791" stop-color="#FDC4B0"/>
<stop offset="0.7655" stop-color="#FBAE97"/>
<stop offset="1" stop-color="#FAA68E"/>
</linearGradient>
<linearGradient id="paint33_linear" x1="117.551" y1="98.7677" x2="125.268" y2="111.584" gradientUnits="userSpaceOnUse">
<stop stop-color="#A57C52"/>
<stop offset="0.1339" stop-color="#A26C4A"/>
<stop offset="0.5155" stop-color="#994336"/>
<stop offset="0.8174" stop-color="#942A2A"/>
<stop offset="1" stop-color="#922125"/>
</linearGradient>
<linearGradient id="paint34_linear" x1="113.825" y1="79.3423" x2="120.557" y2="95.6537" gradientUnits="userSpaceOnUse">
<stop stop-color="#FF6359"/>
<stop offset="0.2243" stop-color="#FE5B50"/>
<stop offset="0.5952" stop-color="#FC4637"/>
<stop offset="1" stop-color="#F82814"/>
</linearGradient>
<linearGradient id="paint35_linear" x1="117.286" y1="84.5625" x2="110.865" y2="74.5424" gradientUnits="userSpaceOnUse">
<stop stop-color="#F82814" stop-opacity="0"/>
<stop offset="0.2454" stop-color="#F12817" stop-opacity="0.245"/>
<stop offset="0.6052" stop-color="#DD2820" stop-opacity="0.605"/>
<stop offset="1" stop-color="#C0272D"/>
</linearGradient>
<linearGradient id="paint36_linear" x1="112.183" y1="90.3861" x2="107.114" y2="82.4758" gradientUnits="userSpaceOnUse">
<stop stop-color="#F82814" stop-opacity="0"/>
<stop offset="0.2454" stop-color="#F12817" stop-opacity="0.245"/>
<stop offset="0.6052" stop-color="#DD2820" stop-opacity="0.605"/>
<stop offset="1" stop-color="#C0272D"/>
</linearGradient>
<linearGradient id="paint37_linear" x1="120.188" y1="91.0405" x2="117.132" y2="86.2716" gradientUnits="userSpaceOnUse">
<stop stop-color="#F82814" stop-opacity="0"/>
<stop offset="0.2454" stop-color="#F12817" stop-opacity="0.245"/>
<stop offset="0.6052" stop-color="#DD2820" stop-opacity="0.605"/>
<stop offset="1" stop-color="#C0272D"/>
</linearGradient>
<linearGradient id="paint38_linear" x1="47.4713" y1="108.592" x2="54.2028" y2="124.903" gradientUnits="userSpaceOnUse">
<stop stop-color="#FF6359"/>
<stop offset="0.2243" stop-color="#FE5B50"/>
<stop offset="0.5952" stop-color="#FC4637"/>
<stop offset="1" stop-color="#F82814"/>
</linearGradient>
<linearGradient id="paint39_linear" x1="50.9" y1="113.834" x2="44.4791" y2="103.814" gradientUnits="userSpaceOnUse">
<stop stop-color="#F82814" stop-opacity="0"/>
<stop offset="0.2454" stop-color="#F12817" stop-opacity="0.245"/>
<stop offset="0.6052" stop-color="#DD2820" stop-opacity="0.605"/>
<stop offset="1" stop-color="#C0272D"/>
</linearGradient>
<linearGradient id="paint40_linear" x1="45.7973" y1="119.658" x2="40.7283" y2="111.748" gradientUnits="userSpaceOnUse">
<stop stop-color="#F82814" stop-opacity="0"/>
<stop offset="0.2454" stop-color="#F12817" stop-opacity="0.245"/>
<stop offset="0.6052" stop-color="#DD2820" stop-opacity="0.605"/>
<stop offset="1" stop-color="#C0272D"/>
</linearGradient>
<linearGradient id="paint41_linear" x1="53.8024" y1="120.312" x2="50.7463" y2="115.543" gradientUnits="userSpaceOnUse">
<stop stop-color="#F82814" stop-opacity="0"/>
<stop offset="0.2454" stop-color="#F12817" stop-opacity="0.245"/>
<stop offset="0.6052" stop-color="#DD2820" stop-opacity="0.605"/>
<stop offset="1" stop-color="#C0272D"/>
</linearGradient>
<linearGradient id="paint42_linear" x1="79.3133" y1="84.6478" x2="87.0309" y2="97.464" gradientUnits="userSpaceOnUse">
<stop stop-color="#A57C52"/>
<stop offset="0.1339" stop-color="#A26C4A"/>
<stop offset="0.5155" stop-color="#994336"/>
<stop offset="0.8174" stop-color="#942A2A"/>
<stop offset="1" stop-color="#922125"/>
</linearGradient>
<linearGradient id="paint43_linear" x1="93.1755" y1="120.852" x2="77.7703" y2="91.7247" gradientUnits="userSpaceOnUse">
<stop stop-color="#798C00" stop-opacity="0"/>
<stop offset="0.6542" stop-color="#556100" stop-opacity="0.654"/>
<stop offset="1" stop-color="#464F00"/>
</linearGradient>
<linearGradient id="paint44_linear" x1="95.5129" y1="87.1666" x2="90.0827" y2="103.014" gradientUnits="userSpaceOnUse">
<stop stop-color="#FFDECF"/>
<stop offset="0.3791" stop-color="#FDC4B0"/>
<stop offset="0.7655" stop-color="#FBAE97"/>
<stop offset="1" stop-color="#FAA68E"/>
</linearGradient>
<linearGradient id="paint45_linear" x1="88.3771" y1="107.318" x2="92.7595" y2="94.5289" gradientUnits="userSpaceOnUse">
<stop stop-color="#FFDECF"/>
<stop offset="0.3791" stop-color="#FDC4B0"/>
<stop offset="0.7655" stop-color="#FBAE97"/>
<stop offset="1" stop-color="#FAA68E"/>
</linearGradient>
<linearGradient id="paint46_linear" x1="24.5396" y1="99.8165" x2="27.8642" y2="106.466" gradientUnits="userSpaceOnUse">
<stop stop-color="#8A7889"/>
<stop offset="0.3344" stop-color="#867385"/>
<stop offset="0.7039" stop-color="#7B667B"/>
<stop offset="1" stop-color="#6E566E"/>
</linearGradient>
<linearGradient id="paint47_linear" x1="60.9254" y1="89.8505" x2="64.25" y2="96.4997" gradientUnits="userSpaceOnUse">
<stop stop-color="#8A7889"/>
<stop offset="0.3344" stop-color="#867385"/>
<stop offset="0.7039" stop-color="#7B667B"/>
<stop offset="1" stop-color="#6E566E"/>
</linearGradient>
<linearGradient id="paint48_linear" x1="107.263" y1="64.1202" x2="110.588" y2="70.7695" gradientUnits="userSpaceOnUse">
<stop stop-color="#8A7889"/>
<stop offset="0.3344" stop-color="#867385"/>
<stop offset="0.7039" stop-color="#7B667B"/>
<stop offset="1" stop-color="#6E566E"/>
</linearGradient>
<linearGradient id="paint49_linear" x1="10.3365" y1="139.543" x2="13.6611" y2="146.192" gradientUnits="userSpaceOnUse">
<stop stop-color="#8A7889"/>
<stop offset="0.3344" stop-color="#867385"/>
<stop offset="0.7039" stop-color="#7B667B"/>
<stop offset="1" stop-color="#6E566E"/>
</linearGradient>
<linearGradient id="paint50_linear" x1="49.1402" y1="70.1323" x2="55.8717" y2="86.4437" gradientUnits="userSpaceOnUse">
<stop stop-color="#FF6359"/>
<stop offset="0.2243" stop-color="#FE5B50"/>
<stop offset="0.5952" stop-color="#FC4637"/>
<stop offset="1" stop-color="#F82814"/>
</linearGradient>
<linearGradient id="paint51_linear" x1="52.5664" y1="75.3552" x2="46.1456" y2="65.3347" gradientUnits="userSpaceOnUse">
<stop stop-color="#F82814" stop-opacity="0"/>
<stop offset="0.2454" stop-color="#F12817" stop-opacity="0.245"/>
<stop offset="0.6052" stop-color="#DD2820" stop-opacity="0.605"/>
<stop offset="1" stop-color="#C0272D"/>
</linearGradient>
<linearGradient id="paint52_linear" x1="47.4631" y1="81.1788" x2="42.3942" y2="73.2685" gradientUnits="userSpaceOnUse">
<stop stop-color="#F82814" stop-opacity="0"/>
<stop offset="0.2454" stop-color="#F12817" stop-opacity="0.245"/>
<stop offset="0.6052" stop-color="#DD2820" stop-opacity="0.605"/>
<stop offset="1" stop-color="#C0272D"/>
</linearGradient>
<linearGradient id="paint53_linear" x1="55.4679" y1="81.8332" x2="52.4121" y2="77.0639" gradientUnits="userSpaceOnUse">
<stop stop-color="#F82814" stop-opacity="0"/>
<stop offset="0.2454" stop-color="#F12817" stop-opacity="0.245"/>
<stop offset="0.6052" stop-color="#DD2820" stop-opacity="0.605"/>
<stop offset="1" stop-color="#C0272D"/>
</linearGradient>
<linearGradient id="paint54_linear" x1="103.36" y1="51.197" x2="111.077" y2="64.0132" gradientUnits="userSpaceOnUse">
<stop stop-color="#A57C52"/>
<stop offset="0.1339" stop-color="#A26C4A"/>
<stop offset="0.5155" stop-color="#994336"/>
<stop offset="0.8174" stop-color="#942A2A"/>
<stop offset="1" stop-color="#922125"/>
</linearGradient>
<linearGradient id="paint55_linear" x1="134.501" y1="47.7574" x2="121.037" y2="69.7645" gradientUnits="userSpaceOnUse">
<stop stop-color="#FAA68E"/>
<stop offset="0.2061" stop-color="#FBA682"/>
<stop offset="0.5808" stop-color="#FDA861"/>
<stop offset="1" stop-color="#FFA936"/>
</linearGradient>
<clipPath id="clip0">
<rect width="184" height="184" fill="white"/>
</clipPath>
</defs>
</svg>
