<svg width="183" height="124" viewBox="0 0 183 124" fill="none" xmlns="http://www.w3.org/2000/svg">
<path d="M143.772 42.3059C151.387 41.2544 159.09 40.5741 171.694 40.2339C173.258 44.0377 174.144 48.1817 174.144 52.5732C174.144 64.5413 167.65 74.9014 158.175 80.0659C154.929 76.695 151.269 73.2932 147.284 69.9533C146.044 68.9018 144.805 67.8813 143.506 66.8607C138.488 62.9023 133.057 59.0675 127.331 55.6348C123.051 53.037 118.594 50.6558 114.049 48.5838C123.789 45.8314 133.736 43.7285 143.772 42.3059Z" fill="#E6E9ED"/>
<path d="M171.694 40.2345C159.09 40.5746 151.387 41.255 143.771 42.3065C133.736 43.7291 123.789 45.8321 114.049 48.5845C110.684 47.0691 107.29 45.6774 103.836 44.5332C99.9991 43.2343 96.1029 42.1828 92.2363 41.4406C116.558 32.472 142.237 27.8331 168.24 27.8331C171.399 27.8331 173.907 25.2663 174.114 22.019C178.866 27.0909 180.047 31.7607 180.047 34.0183C180.047 35.7193 179.397 37.2656 178.305 38.3789C177.243 39.5232 175.767 40.2035 174.144 40.2035C173.317 40.2035 172.52 40.2035 171.694 40.2345Z" fill="#FC6E51"/>
<path d="M75.53 8.72121C84.7095 5.22663 94.1252 3.09277 103.305 3.09277C146.487 3.09277 165.79 13.1126 174.114 21.9882V22.0192C173.907 25.2663 171.398 27.8332 168.24 27.8332C142.236 27.8332 116.557 32.472 92.2361 41.4404H92.2066C88.0153 40.6363 83.8241 40.2034 79.6918 40.2034C76.1794 40.2034 72.8145 40.2652 69.5973 40.3889C41.8521 41.5022 25.4412 47.0997 15.8779 53.3467C23.5521 43.0485 36.8639 30.4618 52.5665 20.442C59.8274 15.8341 67.5902 11.7519 75.53 8.72121Z" fill="#FF826E"/>
<path d="M11.3024 77.3447C34.0003 78.0251 51.5919 80.8084 68.6818 85.6327C88.1034 91.1375 106.846 99.3327 124.379 110.033L126.386 111.27C130.666 113.868 135.182 115.94 139.845 117.486C135.949 119.496 131.551 120.609 126.917 120.609H38.3687C22.0758 120.609 8.85254 106.755 8.85254 89.684C8.85254 85.2926 9.73802 81.1486 11.3024 77.3447Z" fill="#E6E9ED"/>
<path d="M11.3033 77.3447C10.4768 77.3138 9.67987 77.3138 8.85342 77.3138C7.23003 77.3138 5.75423 76.6334 4.69165 75.4891C3.59955 74.3758 2.9502 72.8295 2.9502 71.1286C2.9502 68.871 4.13084 64.2012 8.88294 59.1294C9.08955 62.3766 11.5984 64.9434 14.7566 64.9434C55.3413 64.9434 95.2176 76.2314 130.283 97.6629L132.29 98.9C142.296 105.023 153.689 108.24 165.289 108.24C168.624 108.24 171.664 107.033 174.144 105.085V105.147C174.144 113.682 167.532 120.61 159.386 120.61C152.715 120.61 146.133 119.558 139.846 117.486C135.182 115.94 130.666 113.868 126.387 111.27L124.38 110.033C106.847 99.3329 88.1042 91.1376 68.6826 85.6328C51.5928 80.8084 34.0012 78.025 11.3033 77.3447Z" fill="#FC6E51"/>
<path d="M69.5985 40.3887C72.8157 40.265 76.1806 40.2031 79.693 40.2031C83.8252 40.2031 88.0165 40.6361 92.2078 41.4402H92.2373C96.104 42.1824 100 43.2338 103.837 44.5327C107.291 45.677 110.685 47.0686 114.05 48.584C118.595 50.656 123.052 53.0373 127.332 55.6351C133.058 59.0678 138.489 62.9026 143.507 66.8611C144.806 67.8817 146.045 68.9022 147.285 69.9537C151.27 73.2937 154.93 76.6955 158.176 80.0664C168.005 90.1791 174.086 99.6733 174.145 105.085C171.665 107.034 168.625 108.24 165.29 108.24C153.69 108.24 142.297 105.023 132.291 98.9002L130.284 97.6632C95.2185 76.2316 55.3422 64.9437 14.7575 64.9437C11.5993 64.9437 9.0904 62.3769 8.88379 59.1297V59.0988C10.6843 57.1814 12.957 55.233 15.8791 53.3466C25.4423 47.0996 41.8533 41.502 69.5985 40.3887Z" fill="#FF826E"/>
<path d="M183 34.0181C183 32.6295 182.094 0 103.306 0C68.0937 0 30.071 29.5957 13.9375 50.9251C0.304017 60.0079 0 70.3587 0 71.1287C0 75.6531 3.111 79.4199 7.20784 80.2332C6.36073 83.2887 5.90323 86.4462 5.90323 89.6841C5.90323 108.44 20.4694 123.702 38.371 123.702H126.919C131.509 123.702 135.919 122.679 140.063 120.746C146.317 122.675 152.82 123.702 159.387 123.702C169.154 123.702 177.097 115.38 177.097 105.147C177.097 99.6081 171.719 90.4727 162.882 80.6693C171.722 74.3759 177.097 63.9633 177.097 52.5734C177.097 49.3355 176.639 46.178 175.795 43.1226C179.889 42.3092 183 38.5425 183 34.0181ZM52.4443 24.2394C55.7087 26.8743 58.2206 29.639 59.8292 32.4996L64.9148 29.3514C63.2413 26.3826 60.8682 23.5405 57.8664 20.8531C63.4656 17.5193 69.3098 14.5783 75.272 12.2032C80.7414 15.7906 88.5484 22.3994 88.5484 30.9255H94.4516C94.4516 21.5798 88.1293 14.3989 82.2319 9.72608C89.2745 7.52109 96.379 6.18511 103.306 6.18511C104.325 6.18511 105.275 6.20985 106.267 6.22222C110.411 9.7168 115.113 15.1071 115.113 21.6479H121.016C121.016 16.3905 118.932 11.2383 114.992 6.45725C148.118 8.00353 163.587 16.0813 170.798 23.1014C170.302 24.0724 169.349 24.7404 168.242 24.7404C142.218 24.7404 116.577 29.2927 92.0047 38.2425C87.8961 37.5219 83.7815 37.1106 79.6936 37.1106C56.1574 37.1106 39.6106 40.0331 27.9252 44.1524C34.6608 37.3828 43.0906 30.3812 52.4443 24.2394ZM121.742 55.8701C115.898 60.4378 109.21 67.7486 109.21 77.3138H115.113C115.113 69.1928 122.285 62.7912 127.445 59.2286C132.902 62.6335 138.062 66.3631 142.805 70.2041C138.15 75.3315 135.774 80.827 135.774 86.5915H141.677C141.677 82.3454 143.611 78.1457 147.418 74.0852C160.538 85.5648 169.541 97.2979 170.972 103.545C169.216 104.584 167.283 105.147 165.29 105.147C154.225 105.147 143.327 102.06 133.77 96.2186L131.769 94.994C96.2934 73.3121 55.8298 61.8511 14.7581 61.8511C13.6512 61.8511 12.6978 61.1831 12.202 60.212C18.9494 53.6465 32.9134 46.1502 61.8097 43.9421C58.0671 48.6149 56.0806 53.6342 56.0806 58.7585H61.9839C61.9839 52.3013 66.55 46.9821 70.6793 43.4689C73.5689 43.3669 76.5412 43.2957 79.6936 43.2957C85.2987 43.2957 90.9658 44.106 96.5856 45.5348C90.2249 50.155 82.6452 57.8029 82.6452 68.0362H88.5484C88.5484 58.2266 98.7905 50.9838 104.204 47.8418C110.207 49.9571 116.093 52.7126 121.742 55.8701ZM126.919 117.517H38.371C23.7221 117.517 11.8065 105.032 11.8065 89.6841C11.8065 86.508 12.3318 83.4278 13.3206 80.4837C51.8097 81.2816 89.6051 92.3622 122.893 112.705L124.895 113.93C126.854 115.126 128.876 116.181 130.931 117.168C129.611 117.375 128.28 117.517 126.919 117.517ZM159.387 117.517C148.322 117.517 137.424 114.431 127.867 108.589L125.866 107.364C90.3902 85.6823 49.9265 74.2213 8.85484 74.2213C7.22555 74.2213 5.90323 72.8358 5.90323 71.1287C5.90323 71.0452 6.09803 68.5062 8.27927 65.0024C9.89971 66.8548 12.1931 68.0362 14.7581 68.0362C54.7878 68.0362 94.2214 79.2034 128.797 100.335L130.798 101.559C141.252 107.952 153.18 111.332 165.29 111.332C166.872 111.332 168.419 111.054 169.924 110.618C167.988 114.687 164.015 117.517 159.387 117.517ZM158.629 76.1572C149.148 66.595 136.71 56.8257 122.982 49.4499C138.301 45.7265 153.953 43.7009 169.679 43.3762C170.668 46.3203 171.194 49.4005 171.194 52.5734C171.194 62.2778 166.406 71.0916 158.629 76.1572ZM174.145 37.1106C154.018 37.1106 133.962 39.8723 114.508 45.2904C110.762 43.6267 106.946 42.1855 103.097 40.9763C124.23 34.315 146.093 30.9255 168.242 30.9255C170.807 30.9255 173.1 29.7442 174.721 27.8917C176.902 31.3956 177.097 33.9346 177.097 34.0181C177.097 35.7252 175.774 37.1106 174.145 37.1106Z" fill="black"/>
<path d="M23.6122 89.6842C23.6122 88.8152 23.6801 87.9462 23.8159 87.1019L17.9923 86.0752C17.8034 87.2596 17.709 88.4719 17.709 89.6842C17.709 101.618 26.98 111.332 38.3703 111.332H44.2735V105.147H38.3703C30.2327 105.147 23.6122 98.2104 23.6122 89.6842Z" fill="black"/>
<path d="M50.1777 105.147H56.0809V111.332H50.1777V105.147Z" fill="black"/>
<path d="M61.9844 105.147H67.8876V111.332H61.9844V105.147Z" fill="black"/>
<path d="M139.568 51.6743L143.743 47.3004L146.694 50.3928L142.52 54.7667L139.568 51.6743Z" fill="black"/>
<path d="M151.371 59.6709L154.322 56.5787L158.496 60.9524L155.545 64.0445L151.371 59.6709Z" fill="black"/>
<path d="M157.275 51.6772L161.45 47.3036L164.401 50.3958L160.227 54.7694L157.275 51.6772Z" fill="black"/>
</svg>
