<svg width="245" height="245" viewBox="0 0 245 245" fill="none" xmlns="http://www.w3.org/2000/svg">
<path d="M122.499 244.998C190.153 244.998 244.997 190.154 244.997 122.5C244.997 54.8454 190.153 0.000976562 122.499 0.000976562C54.8445 0.000976562 0 54.8454 0 122.5C0 190.154 54.8445 244.998 122.499 244.998Z" fill="#41B4E6"/>
<path d="M244.999 122.501C244.999 119.517 244.886 116.559 244.677 113.627L193.907 62.8578L51.0908 119.035L105.733 173.678L106.45 176.258L107.378 175.322L107.381 175.326L106.45 176.258L166.894 236.703C212.602 218.921 244.999 174.497 244.999 122.501Z" fill="#0091C8"/>
<path d="M110.602 140.349L165.962 182.146L193.907 62.8578L51.0908 119.035L94.5482 133.429L173.859 80.2299L110.602 140.349Z" fill="white"/>
<path d="M94.5488 133.429L106.451 176.258L110.603 140.349L173.859 80.2299L94.5488 133.429Z" fill="#D2D2D7"/>
<path d="M128.595 153.933L106.451 176.258L110.603 140.349L128.595 153.933Z" fill="#B9B9BE"/>
</svg>
