<svg width="155" height="155" viewBox="0 0 155 155" fill="none" xmlns="http://www.w3.org/2000/svg">
<g clip-path="url(#clip0)">
<path d="M77.5 155C120.302 155 155 120.302 155 77.5C155 34.6979 120.302 0 77.5 0C34.6979 0 0 34.6979 0 77.5C0 120.302 34.6979 155 77.5 155Z" fill="#FFCE00"/>
<path d="M155.001 77.5C155.001 75.4323 154.919 73.3837 154.76 71.3569L123.915 40.5113L117.764 43.7603L89.9278 15.9244L65.0733 28.1258L78.1135 41.1661L40.8115 120.866L74.903 154.957C75.7655 154.986 76.6314 155 77.5008 155C120.303 155 155.001 120.302 155.001 77.5Z" fill="#FFA300"/>
<path d="M69.9551 21.6162H85.0452V41.1447H69.9551V21.6162Z" fill="#555A66"/>
<path d="M77.4443 21.6162H85.0445V41.1447H77.4443V21.6162Z" fill="#333940"/>
<path d="M31.0781 40.5117L41.7468 29.843L55.5535 43.6497L44.8848 54.3184L31.0781 40.5117Z" fill="#555A66"/>
<path d="M110.113 54.3344L99.4446 43.6656L113.251 29.859L123.92 40.5277L110.113 54.3344Z" fill="#333940"/>
<path d="M77.4999 136.304C105.848 136.304 128.828 113.323 128.828 84.9757C128.828 56.628 105.848 33.6477 77.4999 33.6477C49.1522 33.6477 26.1719 56.628 26.1719 84.9757C26.1719 113.323 49.1522 136.304 77.4999 136.304Z" fill="#707789"/>
<path d="M77.4994 33.6477C77.481 33.6477 77.4628 33.6483 77.4443 33.6483V136.303C77.4628 136.303 77.481 136.303 77.4994 136.303C105.847 136.303 128.827 113.323 128.827 84.9754C128.827 56.6277 105.847 33.6477 77.4994 33.6477Z" fill="#555A66"/>
<path d="M77.5001 123.988C99.0458 123.988 116.512 106.521 116.512 84.9757C116.512 63.4301 99.0458 45.9639 77.5001 45.9639C55.9545 45.9639 38.4883 63.4301 38.4883 84.9757C38.4883 106.521 55.9545 123.988 77.5001 123.988Z" fill="white"/>
<path d="M77.4994 45.9639C77.481 45.9639 77.4628 45.9645 77.4443 45.9645V123.987C77.4628 123.987 77.481 123.987 77.4994 123.987C99.045 123.987 116.511 106.521 116.511 84.9754C116.511 63.4298 99.045 45.9639 77.4994 45.9639Z" fill="#E9EDF5"/>
<path d="M65.0723 15.9244H89.9265V28.1258H65.0723V15.9244Z" fill="#707789"/>
<path d="M77.4443 15.9244H89.9267V28.1258H77.4443V15.9244Z" fill="#555A66"/>
<path d="M74.2734 81.7637L95.6768 60.3604L102.098 66.7814L80.6944 88.1847L74.2734 81.7637Z" fill="#333940"/>
<path d="M77.4999 92.9297C81.8928 92.9297 85.454 89.3686 85.454 84.9757C85.454 80.5828 81.8928 77.0216 77.4999 77.0216C73.107 77.0216 69.5459 80.5828 69.5459 84.9757C69.5459 89.3686 73.107 92.9297 77.4999 92.9297Z" fill="#707789"/>
<path d="M77.4994 77.0215C77.481 77.0215 77.4628 77.0227 77.4443 77.023V92.9284C77.4628 92.9284 77.481 92.9299 77.4994 92.9299C81.8924 92.9299 85.4535 89.3688 85.4535 84.9758C85.4535 80.5828 81.8924 77.0215 77.4994 77.0215Z" fill="#555A66"/>
</g>
<defs>
<clipPath id="clip0">
<rect width="155" height="155" fill="white"/>
</clipPath>
</defs>
</svg>
